<svg xmlns="http://www.w3.org/2000/svg" xmlns:xlink="http://www.w3.org/1999/xlink" width="375" height="812" viewBox="0 0 375 812">
  <defs>
    <clipPath id="clip-iPhone_X_XS_11_Pro_4">
      <rect width="375" height="812"/>
    </clipPath>
  </defs>
  <g id="iPhone_X_XS_11_Pro_4" data-name="iPhone X/XS/11 Pro – 4" clip-path="url(#clip-iPhone_X_XS_11_Pro_4)">
    <rect width="375" height="812" fill="#fff"/>
    <g id="stethoscope_1_" data-name="stethoscope (1)" transform="matrix(0.914, 0.407, -0.407, 0.914, 57.175, 506.249)" opacity="0.06">
      <path id="Path_19" data-name="Path 19" d="M4.257,70.3a2.7,2.7,0,0,1-2.583-3.5,27.259,27.259,0,0,0,.722-2.89c.01-.053.021-.107.035-.159L14.344,17.025A8.966,8.966,0,0,0,7.638,6.689L2.065,5.33A2.7,2.7,0,1,1,3.343.077L8.918,1.435A14.369,14.369,0,0,1,19.639,18.118c-.01.053-.021.106-.035.159L7.689,65.006a32.638,32.638,0,0,1-.85,3.387A2.706,2.706,0,0,1,4.257,70.3Zm0,0" transform="translate(67.85 9.01)" fill="#aab2b9"/>
      <path id="Path_20" data-name="Path 20" d="M15.644,70.3a2.7,2.7,0,0,1-2.582-1.9A32.544,32.544,0,0,1,12.212,65L.3,18.275c-.013-.052-.024-.1-.035-.158A14.37,14.37,0,0,1,10.983,1.435L16.556.077a2.7,2.7,0,1,1,1.28,5.253L12.261,6.687a8.966,8.966,0,0,0-6.7,10.336L17.47,63.746c.013.053.025.106.035.159a27.148,27.148,0,0,0,.722,2.893,2.708,2.708,0,0,1-2.583,3.5Zm0,0" transform="translate(0 9.01)" fill="#aab2b9"/>
      <path id="Path_21" data-name="Path 21" d="M.029,9.138c.5,4.326,7.356,7.084,11.682,6.582A7.886,7.886,0,0,0,9.89.053C5.564.556-.473,4.812.029,9.138Zm0,0" transform="translate(17.18 2.703)" fill="#ffaa16"/>
      <path id="Path_22" data-name="Path 22" d="M18.658,9.139c-.5,4.326-7.355,7.084-11.681,6.582A7.886,7.886,0,1,1,8.8.054C13.124.556,19.161,4.812,18.658,9.139Zm0,0" transform="translate(51.882 2.703)" fill="#ffaa16"/>
      <path id="Path_23" data-name="Path 23" d="M69.965,123.841a43.559,43.559,0,0,1-43.508-43.51V44.775a1.069,1.069,0,0,0-.891-1.055A34.437,34.437,0,0,1,.494,25.134a4.7,4.7,0,0,1,.2-4.549A4.76,4.76,0,0,1,4.685,18.28h.087A4.908,4.908,0,0,1,9.09,21.008,24.671,24.671,0,0,0,31.229,34.657a24.966,24.966,0,0,0,22.213-13.8,4.768,4.768,0,0,1,8.522,4.278A34.437,34.437,0,0,1,36.891,43.721l-.172.017a1.07,1.07,0,0,0-.96,1.064l.015,35.523a34.234,34.234,0,0,0,34.192,34.2H82.488A34.193,34.193,0,0,0,116.68,80.332V0H126V80.332a43.509,43.509,0,0,1-43.508,43.51Zm0,0" transform="translate(12.647 57.984)" fill="#5de1c0"/>
      <path id="Path_24" data-name="Path 24" d="M39.014,19.507A19.507,19.507,0,1,1,19.507,0,19.506,19.506,0,0,1,39.014,19.507Zm0,0" transform="translate(113.914 37.613)" fill="#ffaa16"/>
      <path id="Path_25" data-name="Path 25" d="M0,0V38.842A19.507,19.507,0,0,0,17.708,19.421,19.508,19.508,0,0,0,0,0ZM0,0" transform="translate(135.222 37.699)" fill="#ff914d"/>
      <path id="Path_26" data-name="Path 26" d="M15.2,7.6A7.6,7.6,0,1,1,7.6,0,7.6,7.6,0,0,1,15.2,7.6Zm0,0" transform="translate(125.822 49.521)" fill="#e1effb"/>
      <g id="Group_6" data-name="Group 6" transform="translate(9.942 0)">
        <path id="Path_27" data-name="Path 27" d="M58.734,99.424H46.213A46.265,46.265,0,0,1,0,53.211v-12.4a2.7,2.7,0,1,1,5.406,0v12.4A40.852,40.852,0,0,0,46.213,94.016H58.734A40.852,40.852,0,0,0,99.54,53.211V2.7a2.7,2.7,0,1,1,5.406,0V53.211A46.265,46.265,0,0,1,58.734,99.424Zm0,0" transform="translate(26.458 85.105)" fill="#434c54"/>
        <path id="Path_28" data-name="Path 28" d="M85.192,101.652H72.67a36.941,36.941,0,0,1-36.9-36.9l-.014-35.523a3.761,3.761,0,0,1,3.387-3.753l.083-.008A31.724,31.724,0,0,0,62.247,8.356a1.981,1.981,0,0,0-.1-1.961,2.07,2.07,0,0,0-3.58.086,27.688,27.688,0,0,1-24.634,15.3A27.36,27.36,0,0,1,9.381,6.648a2.216,2.216,0,0,0-1.9-1.242H7.418A2.062,2.062,0,0,0,5.708,6.411a1.977,1.977,0,0,0-.089,1.943,31.729,31.729,0,0,0,23.1,17.125,3.759,3.759,0,0,1,3.149,3.72V39.834a2.7,2.7,0,0,1-2.7,2.7h0a2.7,2.7,0,0,1-2.7-2.7V30.556A37.15,37.15,0,0,1,.779,10.762a7.386,7.386,0,0,1,.306-7.153A7.451,7.451,0,0,1,7.339,0h.11a7.647,7.647,0,0,1,6.76,4.216A21.982,21.982,0,0,0,33.934,16.379a22.248,22.248,0,0,0,19.791-12.3,7.474,7.474,0,0,1,13.02-.534,7.379,7.379,0,0,1,.344,7.215A37.161,37.161,0,0,1,41.167,30.605l.014,34.143a31.529,31.529,0,0,0,31.491,31.5h12.52a31.525,31.525,0,0,0,31.489-31.489V14.528a2.7,2.7,0,1,1,5.406,0V64.757a36.936,36.936,0,0,1-36.9,36.9Zm0,0" transform="translate(0 73.559)" fill="#434c54"/>
        <path id="Path_29" data-name="Path 29" d="M22.21,44.42A22.21,22.21,0,1,1,44.42,22.21,22.235,22.235,0,0,1,22.21,44.42Zm0-39.014a16.8,16.8,0,1,0,16.8,16.8A16.824,16.824,0,0,0,22.21,5.406Zm0,0" transform="translate(101.269 34.91)" fill="#434c54"/>
        <path id="Path_30" data-name="Path 30" d="M10.3,20.605a10.3,10.3,0,1,1,10.3-10.3A10.315,10.315,0,0,1,10.3,20.605Zm0-15.2a4.9,4.9,0,1,0,4.9,4.9A4.9,4.9,0,0,0,10.3,5.406Zm0,0" transform="translate(113.177 46.818)" fill="#434c54"/>
        <path id="Path_31" data-name="Path 31" d="M13.369,21.183c-5.337,0-12.644-3.218-13.32-9.03C-.685,5.829,6.925.694,12.282.071a10.589,10.589,0,1,1,2.445,21.036,11.746,11.746,0,0,1-1.359.076Zm-7.95-9.655c.258,2.213,5.208,4.612,8.685,4.209a5.183,5.183,0,0,0-1.2-10.3c-3.477.4-7.745,3.874-7.488,6.088Zm0,0" transform="translate(4.533 0)" fill="#434c54"/>
        <path id="Path_32" data-name="Path 32" d="M10.757,21.186a12.071,12.071,0,0,1-1.39-.079A10.589,10.589,0,1,1,11.813.072,16.308,16.308,0,0,1,19.978,3.8c2.961,2.483,4.405,5.453,4.067,8.358s-2.424,5.464-5.875,7.2a17,17,0,0,1-7.414,1.829Zm-.17-15.781a5.183,5.183,0,0,0-.594,10.332,11.038,11.038,0,0,0,5.745-1.209c1.722-.867,2.821-1.989,2.938-3h0c.117-1.009-.7-2.354-2.172-3.593a11.044,11.044,0,0,0-5.316-2.495,5.1,5.1,0,0,0-.6-.035Zm0,0" transform="translate(39.238 0)" fill="#434c54"/>
      </g>
    </g>
    <g id="syringe_1_" data-name="syringe (1)" transform="matrix(0.914, 0.407, -0.407, 0.914, 202.703, 568.042)" opacity="0.06">
      <path id="Path_33" data-name="Path 33" d="M55.71,23.152,23.152,55.71,0,32.559,32.559,0Z" transform="translate(118.26 10.558)" fill="#9de88d"/>
      <rect id="Rectangle_3" data-name="Rectangle 3" width="46.044" height="16.369" transform="translate(129.837 54.692) rotate(-45)" fill="#60dc4d"/>
      <rect id="Rectangle_4" data-name="Rectangle 4" width="59.187" height="10.829" transform="translate(49.508 142.678) rotate(135)" fill="#ff4f19"/>
      <rect id="Rectangle_5" data-name="Rectangle 5" width="59.187" height="5.414" transform="translate(3.827 180.698) rotate(-45)" fill="#fc173d"/>
      <path id="Path_34" data-name="Path 34" d="M127.064,43.626,43.626,127.064,8.39,118.675,0,83.439,83.438,0Z" transform="translate(32.242 25.223)" fill="#92fff4"/>
      <path id="Path_35" data-name="Path 35" d="M35.236,105.251l83.438-83.439L96.862,0,0,96.861Z" transform="translate(40.631 47.036)" fill="#0feacf"/>
      <rect id="Rectangle_6" data-name="Rectangle 6" width="10.829" height="90.778" transform="translate(169.703 78.981) rotate(134.765)" fill="#00a5ff"/>
      <rect id="Rectangle_7" data-name="Rectangle 7" width="10.829" height="62.605" transform="translate(184.528 44.268) rotate(135)" fill="#3acc8f"/>
      <g id="Group_7" data-name="Group 7" transform="translate(39.363 52.46)">
        <rect id="Rectangle_8" data-name="Rectangle 8" width="10.829" height="25.043" transform="translate(25.365 59.214) rotate(135)" fill="#00a5ff"/>
        <rect id="Rectangle_9" data-name="Rectangle 9" width="10.829" height="25.043" transform="translate(39.197 45.376) rotate(135)" fill="#00a5ff"/>
        <rect id="Rectangle_10" data-name="Rectangle 10" width="10.829" height="25.043" transform="translate(53.033 31.546) rotate(135)" fill="#00a5ff"/>
        <rect id="Rectangle_11" data-name="Rectangle 11" width="10.829" height="25.043" transform="translate(66.866 17.708) rotate(135)" fill="#00a5ff"/>
      </g>
      <rect id="Rectangle_12" data-name="Rectangle 12" width="10.829" height="45.39" transform="translate(129.833 54.692) rotate(-45)" fill="#08f"/>
      <rect id="Rectangle_13" data-name="Rectangle 13" width="10.829" height="31.303" transform="translate(154.736 29.794) rotate(-45)" fill="#00ba63"/>
    </g>
    <g id="doctor" transform="translate(126.871 -292.888) rotate(20)" opacity="0.13">
      <path id="Path_1" data-name="Path 1" d="M484.766,83.824V156.74H0V83.824A46.772,46.772,0,0,1,29.783,40.195L132,0l79.785,87.672,25.036-51v-.1l5.564-11.421,5.666,11.422,25.046,51.1L352.768,0,455.084,40.195a46.94,46.94,0,0,1,29.682,43.629" transform="translate(0 326.187)" fill="#f2f2f2"/>
      <path id="Path_2" data-name="Path 2" d="M143.156,41.77h.1V.262a223.578,223.578,0,0,1-18.623,24.359l-9.9,10.907A48.375,48.375,0,0,1,79.29,51.183H64.141A48.322,48.322,0,0,1,28.692,35.529L18.8,24.622A219.5,219.5,0,0,1,0,0V41.7l.162.08L62.474,76.926l9.191,5.151,9.191-5.151Z" transform="translate(170.729 269.268)" fill="#f8b64c"/>
      <g id="Group_2" data-name="Group 2" transform="translate(215.994 269.742)" opacity="0.1">
        <g id="Group_1" data-name="Group 1" transform="translate(0 0)">
          <path id="Path_3" data-name="Path 3" d="M.848,47.013l-.182-.061c-.1-.041-.212-.071-.313-.1C.252,46.8.141,46.79,0,46.74L38.084,75.028,97.892,41.3h.061L97.994,0c-.1.152-14.2,18.623-18.623,24.128l-9.9,10.918A48.375,48.375,0,0,1,34.025,50.7H18.876a43.1,43.1,0,0,1-9-.959,46.788,46.788,0,0,1-9.03-2.727" transform="translate(0 0)" fill="#40596b"/>
        </g>
      </g>
      <g id="Group_3" data-name="Group 3" transform="translate(126.27 154.025)">
        <path id="Path_4" data-name="Path 4" d="M45.235,30.923c1.576,18.129-7.221,33.711-19.643,34.782C13.15,66.8,1.788,52.97.183,34.842-1.393,16.714,7.4,1.151,19.846.06S43.66,12.785,45.235,30.923" transform="translate(0 0)" fill="#f8b64c"/>
        <path id="Path_5" data-name="Path 5" d="M45.222,34.852C43.646,52.98,32.265,66.8,19.832,65.705S-1.417,49.052.189,30.923C1.764,12.795,13.146-1.03,25.579.06,38.021,1.13,46.817,16.714,45.222,34.852" transform="translate(186.912 0.01)" fill="#f8b64c"/>
      </g>
      <path id="Path_6" data-name="Path 6" d="M207.679,159.973c-1.909,20.3-11.524,65.03-50.082,108.86l-9.9,10.907A48.349,48.349,0,0,1,112.251,295.4H97.1A48.293,48.293,0,0,1,61.654,279.74l-9.9-10.907C13.177,225,3.684,180.262,1.654,159.973-1.072,132,.038,96.449,1.654,87.258,10.845,33.429,56.907,0,104.678,0s93.813,33.429,103,87.258c1.615,9.191,2.726,44.75,0,72.715" transform="translate(137.767 25.036)" fill="#ffd15c"/>
      <path id="Path_7" data-name="Path 7" d="M44.415,50.557s.707-68,99.569-46.275c0,0,49.052,15.411,80.612,61,0,0,29.611,43,13.513,79.179-5.231,11.745-10.847,25.188-10.2,35.984,0,0-5.484-22.916-8.756-42.013a89.4,89.4,0,0,0-20.2-43.285l-.313-.374c-17.118-19.825-43.912-29.1-69.251-22.562-12.089,3.121-25.844,9.211-40.973,20.007,0,0-41.185-27.642-61.545,20.744,0,0-9.07,35.368-7.787,63.3,0-.011-56.687-118.7,25.329-125.707" transform="translate(119.285 0)" fill="#40596b"/>
      <path id="Path_8" data-name="Path 8" d="M68.171,50.082c-.2-1.717-.6-17.462-3.828-23.825A36.215,36.215,0,0,0,37.277,6.564L4.757,0V6.665h-.1L0,9.291l35.661,7.272A25.882,25.882,0,0,1,55.253,30.792,25.506,25.506,0,0,1,57.99,46.355l-.212,2.625C15.058,86.045,2.939,119.473,2.434,120.988c-3.212,9.594-3.019,17.168.515,22.622a15.6,15.6,0,0,0,11.2,6.968l1.01-10.1a5.832,5.832,0,0,1-3.828-2.525c-1.616-2.636-1.424-7.473.707-13.645.1-.212,6.06-16.653,24.238-38.892a21.647,21.647,0,0,1,28.581,8.474c2.01,29.2-2.424,46.366-2.525,46.467-1.929,6.261-4.555,10.4-7.473,11.513a4.927,4.927,0,0,1-4.454-.2L47.881,156.1l-2.626,4.373a15.323,15.323,0,0,0,7.676,2.02,13.869,13.869,0,0,0,5.464-1.111c6.06-2.313,10.715-8.382,13.725-18.077.414-1.514,9.8-36.77-3.949-93.226M54.759,76.24a29.519,29.519,0,0,0-9.312-1.2c4.363-4.757,9.191-9.594,14.654-14.532,1.515,7.06,2.625,13.826,3.434,20.2a29.981,29.981,0,0,0-8.776-4.464" transform="translate(309.23 304.383)" fill="#acb3ba"/>
      <g id="Group_4" data-name="Group 4" transform="translate(321.503 442.853)">
        <path id="Path_9" data-name="Path 9" d="M10.764,8.838a7.519,7.519,0,0,1-8.817,5.908C-2.093,13.947.785-.767,4.845.031a7.51,7.51,0,0,1,5.918,8.806" transform="translate(0 0)" fill="#f8b64c"/>
        <path id="Path_10" data-name="Path 10" d="M.681,4.38a7.5,7.5,0,0,0,3.686,9.938C8.135,16.045,14.385,2.421,10.619.684A7.506,7.506,0,0,0,.681,4.38" transform="translate(26.454 9.508)" fill="#f8b64c"/>
      </g>
      <path id="Path_11" data-name="Path 11" d="M84.606,6.666l-.162-.08V0L62.61,4.495A78.359,78.359,0,0,0,6.65,112.769l9.251-4.06A68.256,68.256,0,0,1,64.631,14.4L89.3,9.322Z" transform="translate(86.274 304.373)" fill="#acb3ba"/>
      <g id="Group_5" data-name="Group 5" transform="translate(131.997 310.937)">
        <path id="Path_12" data-name="Path 12" d="M110.386,15.25,35.862,113.011,0,40.4l9.191-5.151L71.5.1h.1l.1-.1Z" transform="translate(110.386 0)" fill="#cdd6e0"/>
        <path id="Path_13" data-name="Path 13" d="M0,15.25l74.645,97.761L110.386,40.4l-9.191-5.151L38.883.1l-.2-.1Z" transform="translate(0)" fill="#cdd6e0"/>
      </g>
      <path id="Path_14" data-name="Path 14" d="M0,131.593,20.39,85.137l-8.8-12.928-6.443-9.7L30.177,11.422,35.741,0l5.666,11.422v.1L66.453,62.514l-6.564,9.6-8.8,13.019L71.6,131.593Z" transform="translate(206.642 351.335)" fill="#334a5e"/>
      <path id="Path_15" data-name="Path 15" d="M61.3,62.514l-6.564,9.6L30.692,22.925,6.443,72.209,0,62.514,25.026,11.422,30.59,0l5.666,11.422v.1Z" transform="translate(211.793 351.335)" fill="#2a4356"/>
      <path id="Path_16" data-name="Path 16" d="M45.75,22.865A22.875,22.875,0,1,1,22.864,0,22.9,22.9,0,0,1,45.75,22.865" transform="translate(82.168 410.093)" fill="#ff7058"/>
      <path id="Path_17" data-name="Path 17" d="M30.732,15.361A15.366,15.366,0,1,1,15.381,0,15.353,15.353,0,0,1,30.732,15.361" transform="translate(89.672 417.596)" fill="#f2f2f2"/>
      <path id="Path_18" data-name="Path 18" d="M21.531,10.756A10.766,10.766,0,1,1,10.786,0,10.752,10.752,0,0,1,21.531,10.756" transform="translate(94.278 422.202)" fill="#acb3ba"/>
    </g>
    <g id="stethoscope_1_2" data-name="stethoscope (1)" transform="matrix(0.914, 0.407, -0.407, 0.914, 338.175, 243.249)" opacity="0.06">
      <path id="Path_19-2" data-name="Path 19" d="M4.257,70.3a2.7,2.7,0,0,1-2.583-3.5,27.259,27.259,0,0,0,.722-2.89c.01-.053.021-.107.035-.159L14.344,17.025A8.966,8.966,0,0,0,7.638,6.689L2.065,5.33A2.7,2.7,0,1,1,3.343.077L8.918,1.435A14.369,14.369,0,0,1,19.639,18.118c-.01.053-.021.106-.035.159L7.689,65.006a32.638,32.638,0,0,1-.85,3.387A2.706,2.706,0,0,1,4.257,70.3Zm0,0" transform="translate(67.85 9.01)" fill="#aab2b9"/>
      <path id="Path_20-2" data-name="Path 20" d="M15.644,70.3a2.7,2.7,0,0,1-2.582-1.9A32.544,32.544,0,0,1,12.212,65L.3,18.275c-.013-.052-.024-.1-.035-.158A14.37,14.37,0,0,1,10.983,1.435L16.556.077a2.7,2.7,0,1,1,1.28,5.253L12.261,6.687a8.966,8.966,0,0,0-6.7,10.336L17.47,63.746c.013.053.025.106.035.159a27.148,27.148,0,0,0,.722,2.893,2.708,2.708,0,0,1-2.583,3.5Zm0,0" transform="translate(0 9.01)" fill="#aab2b9"/>
      <path id="Path_21-2" data-name="Path 21" d="M.029,9.138c.5,4.326,7.356,7.084,11.682,6.582A7.886,7.886,0,0,0,9.89.053C5.564.556-.473,4.812.029,9.138Zm0,0" transform="translate(17.18 2.703)" fill="#ffaa16"/>
      <path id="Path_22-2" data-name="Path 22" d="M18.658,9.139c-.5,4.326-7.355,7.084-11.681,6.582A7.886,7.886,0,1,1,8.8.054C13.124.556,19.161,4.812,18.658,9.139Zm0,0" transform="translate(51.882 2.703)" fill="#ffaa16"/>
      <path id="Path_23-2" data-name="Path 23" d="M69.965,123.841a43.559,43.559,0,0,1-43.508-43.51V44.775a1.069,1.069,0,0,0-.891-1.055A34.437,34.437,0,0,1,.494,25.134a4.7,4.7,0,0,1,.2-4.549A4.76,4.76,0,0,1,4.685,18.28h.087A4.908,4.908,0,0,1,9.09,21.008,24.671,24.671,0,0,0,31.229,34.657a24.966,24.966,0,0,0,22.213-13.8,4.768,4.768,0,0,1,8.522,4.278A34.437,34.437,0,0,1,36.891,43.721l-.172.017a1.07,1.07,0,0,0-.96,1.064l.015,35.523a34.234,34.234,0,0,0,34.192,34.2H82.488A34.193,34.193,0,0,0,116.68,80.332V0H126V80.332a43.509,43.509,0,0,1-43.508,43.51Zm0,0" transform="translate(12.647 57.984)" fill="#5de1c0"/>
      <path id="Path_24-2" data-name="Path 24" d="M39.014,19.507A19.507,19.507,0,1,1,19.507,0,19.506,19.506,0,0,1,39.014,19.507Zm0,0" transform="translate(113.914 37.613)" fill="#ffaa16"/>
      <path id="Path_25-2" data-name="Path 25" d="M0,0V38.842A19.507,19.507,0,0,0,17.708,19.421,19.508,19.508,0,0,0,0,0ZM0,0" transform="translate(135.222 37.699)" fill="#ff914d"/>
      <path id="Path_26-2" data-name="Path 26" d="M15.2,7.6A7.6,7.6,0,1,1,7.6,0,7.6,7.6,0,0,1,15.2,7.6Zm0,0" transform="translate(125.822 49.521)" fill="#e1effb"/>
      <g id="Group_6-2" data-name="Group 6" transform="translate(9.942 0)">
        <path id="Path_27-2" data-name="Path 27" d="M58.734,99.424H46.213A46.265,46.265,0,0,1,0,53.211v-12.4a2.7,2.7,0,1,1,5.406,0v12.4A40.852,40.852,0,0,0,46.213,94.016H58.734A40.852,40.852,0,0,0,99.54,53.211V2.7a2.7,2.7,0,1,1,5.406,0V53.211A46.265,46.265,0,0,1,58.734,99.424Zm0,0" transform="translate(26.458 85.105)" fill="#434c54"/>
        <path id="Path_28-2" data-name="Path 28" d="M85.192,101.652H72.67a36.941,36.941,0,0,1-36.9-36.9l-.014-35.523a3.761,3.761,0,0,1,3.387-3.753l.083-.008A31.724,31.724,0,0,0,62.247,8.356a1.981,1.981,0,0,0-.1-1.961,2.07,2.07,0,0,0-3.58.086,27.688,27.688,0,0,1-24.634,15.3A27.36,27.36,0,0,1,9.381,6.648a2.216,2.216,0,0,0-1.9-1.242H7.418A2.062,2.062,0,0,0,5.708,6.411a1.977,1.977,0,0,0-.089,1.943,31.729,31.729,0,0,0,23.1,17.125,3.759,3.759,0,0,1,3.149,3.72V39.834a2.7,2.7,0,0,1-2.7,2.7h0a2.7,2.7,0,0,1-2.7-2.7V30.556A37.15,37.15,0,0,1,.779,10.762a7.386,7.386,0,0,1,.306-7.153A7.451,7.451,0,0,1,7.339,0h.11a7.647,7.647,0,0,1,6.76,4.216A21.982,21.982,0,0,0,33.934,16.379a22.248,22.248,0,0,0,19.791-12.3,7.474,7.474,0,0,1,13.02-.534,7.379,7.379,0,0,1,.344,7.215A37.161,37.161,0,0,1,41.167,30.605l.014,34.143a31.529,31.529,0,0,0,31.491,31.5h12.52a31.525,31.525,0,0,0,31.489-31.489V14.528a2.7,2.7,0,1,1,5.406,0V64.757a36.936,36.936,0,0,1-36.9,36.9Zm0,0" transform="translate(0 73.559)" fill="#434c54"/>
        <path id="Path_29-2" data-name="Path 29" d="M22.21,44.42A22.21,22.21,0,1,1,44.42,22.21,22.235,22.235,0,0,1,22.21,44.42Zm0-39.014a16.8,16.8,0,1,0,16.8,16.8A16.824,16.824,0,0,0,22.21,5.406Zm0,0" transform="translate(101.269 34.91)" fill="#434c54"/>
        <path id="Path_30-2" data-name="Path 30" d="M10.3,20.605a10.3,10.3,0,1,1,10.3-10.3A10.315,10.315,0,0,1,10.3,20.605Zm0-15.2a4.9,4.9,0,1,0,4.9,4.9A4.9,4.9,0,0,0,10.3,5.406Zm0,0" transform="translate(113.177 46.818)" fill="#434c54"/>
        <path id="Path_31-2" data-name="Path 31" d="M13.369,21.183c-5.337,0-12.644-3.218-13.32-9.03C-.685,5.829,6.925.694,12.282.071a10.589,10.589,0,1,1,2.445,21.036,11.746,11.746,0,0,1-1.359.076Zm-7.95-9.655c.258,2.213,5.208,4.612,8.685,4.209a5.183,5.183,0,0,0-1.2-10.3c-3.477.4-7.745,3.874-7.488,6.088Zm0,0" transform="translate(4.533 0)" fill="#434c54"/>
        <path id="Path_32-2" data-name="Path 32" d="M10.757,21.186a12.071,12.071,0,0,1-1.39-.079A10.589,10.589,0,1,1,11.813.072,16.308,16.308,0,0,1,19.978,3.8c2.961,2.483,4.405,5.453,4.067,8.358s-2.424,5.464-5.875,7.2a17,17,0,0,1-7.414,1.829Zm-.17-15.781a5.183,5.183,0,0,0-.594,10.332,11.038,11.038,0,0,0,5.745-1.209c1.722-.867,2.821-1.989,2.938-3h0c.117-1.009-.7-2.354-2.172-3.593a11.044,11.044,0,0,0-5.316-2.495,5.1,5.1,0,0,0-.6-.035Zm0,0" transform="translate(39.238 0)" fill="#434c54"/>
      </g>
    </g>
    <g id="syringe_1_2" data-name="syringe (1)" transform="matrix(0.914, 0.407, -0.407, 0.914, 56.703, 204.042)" opacity="0.06">
      <path id="Path_33-2" data-name="Path 33" d="M55.71,23.152,23.152,55.71,0,32.559,32.559,0Z" transform="translate(118.26 10.558)" fill="#9de88d"/>
      <rect id="Rectangle_3-2" data-name="Rectangle 3" width="46.044" height="16.369" transform="translate(129.837 54.692) rotate(-45)" fill="#60dc4d"/>
      <rect id="Rectangle_4-2" data-name="Rectangle 4" width="59.187" height="10.829" transform="translate(49.508 142.678) rotate(135)" fill="#ff4f19"/>
      <rect id="Rectangle_5-2" data-name="Rectangle 5" width="59.187" height="5.414" transform="translate(3.827 180.698) rotate(-45)" fill="#fc173d"/>
      <path id="Path_34-2" data-name="Path 34" d="M127.064,43.626,43.626,127.064,8.39,118.675,0,83.439,83.438,0Z" transform="translate(32.242 25.223)" fill="#92fff4"/>
      <path id="Path_35-2" data-name="Path 35" d="M35.236,105.251l83.438-83.439L96.862,0,0,96.861Z" transform="translate(40.631 47.036)" fill="#0feacf"/>
      <rect id="Rectangle_6-2" data-name="Rectangle 6" width="10.829" height="90.778" transform="translate(169.703 78.981) rotate(134.765)" fill="#00a5ff"/>
      <rect id="Rectangle_7-2" data-name="Rectangle 7" width="10.829" height="62.605" transform="translate(184.528 44.268) rotate(135)" fill="#3acc8f"/>
      <g id="Group_7-2" data-name="Group 7" transform="translate(39.363 52.46)">
        <rect id="Rectangle_8-2" data-name="Rectangle 8" width="10.829" height="25.043" transform="translate(25.365 59.214) rotate(135)" fill="#00a5ff"/>
        <rect id="Rectangle_9-2" data-name="Rectangle 9" width="10.829" height="25.043" transform="translate(39.197 45.376) rotate(135)" fill="#00a5ff"/>
        <rect id="Rectangle_10-2" data-name="Rectangle 10" width="10.829" height="25.043" transform="translate(53.033 31.546) rotate(135)" fill="#00a5ff"/>
        <rect id="Rectangle_11-2" data-name="Rectangle 11" width="10.829" height="25.043" transform="translate(66.866 17.708) rotate(135)" fill="#00a5ff"/>
      </g>
      <rect id="Rectangle_12-2" data-name="Rectangle 12" width="10.829" height="45.39" transform="translate(129.833 54.692) rotate(-45)" fill="#08f"/>
      <rect id="Rectangle_13-2" data-name="Rectangle 13" width="10.829" height="31.303" transform="translate(154.736 29.794) rotate(-45)" fill="#00ba63"/>
    </g>
  </g>
</svg>
