<svg xmlns="http://www.w3.org/2000/svg" xmlns:xlink="http://www.w3.org/1999/xlink" width="45" height="46" viewBox="0 0 45 46">
  <defs>
    <clipPath id="clip-Artboard_3">
      <rect width="45" height="46"/>
    </clipPath>
  </defs>
  <g id="Artboard_3" data-name="Artboard – 3" clip-path="url(#clip-Artboard_3)">
    <g id="Group_1658" data-name="Group 1658" transform="translate(784 1739)">
      <g id="Group_1654" data-name="Group 1654" transform="translate(-778.957 -1734.959)">
        <path id="Path_1473" data-name="Path 1473" d="M464.313,1125.9v-3.811q0-4.407,0-8.813c0-1.23.055-1.287,1.256-1.287q9.634,0,19.267,0c1.21,0,1.254.048,1.257,1.282,0,.341,0,.682,0,1.136.509,0,.96.023,1.408-.005.742-.047,1.028.272,1.021,1.016-.024,2.707-.01,5.414-.008,8.122,0,.141.014.283.028.549,1.208,0,2.406-.019,3.6,0a3.553,3.553,0,0,1,3.523,2.868,2.8,2.8,0,0,1-.033,1.266q-2.257,8.332-4.556,16.654c-.068.249-.125.5-.173.754a3,3,0,0,1-3.125,2.647q-12.571.015-25.142,0a3.011,3.011,0,0,1-3.161-3.235q-.014-7.949,0-15.9a3.041,3.041,0,0,1,3.238-3.247C463.2,1125.9,463.69,1125.9,464.313,1125.9Zm10.819,21.173v0q6.178,0,12.355,0c1.577,0,2.223-.635,2.226-2.185q.011-6.264,0-12.528c0-1.563-.653-2.212-2.2-2.214-3.8,0-7.612-.158-11.4.053-2.564.143-4.585-.407-6.111-2.541a1.657,1.657,0,0,0-1.173-.512c-1.986-.052-3.974-.031-5.961-.021-1.534.007-2.177.674-2.178,2.241q0,7.733,0,15.465c0,1.593.659,2.246,2.262,2.247Q469.041,1147.076,475.132,1147.073Zm9.727-33.808H465.578v12.626a22.862,22.862,0,0,0,2.453-.016,3.293,3.293,0,0,1,3.309,1.335,5.789,5.789,0,0,0,1.228,1.208,2.236,2.236,0,0,0,1.187.486c3.456.038,6.912.023,10.368.019.245,0,.49-.033.736-.05Zm3.655,12.036c0,1.153-.02,2.212.018,3.268a.757.757,0,0,0,.4.532,3.078,3.078,0,0,1,2,3.116c-.013,1.985,0,3.97,0,5.955v2.059a2.325,2.325,0,0,0,.411-.895c1.007-3.659,1.944-7.338,3.049-10.967a2.4,2.4,0,0,0-2.288-3.073C490.955,1125.317,489.805,1125.3,488.514,1125.3Zm-2.351-9.649v13.225h1.086v-13.225Z" transform="translate(-459.47 -1111.989)" fill="#4d4d4d"/>
        <path id="Path_1474" data-name="Path 1474" d="M480.951,1219.431q-6.091,0-12.182,0c-1.6,0-2.261-.654-2.262-2.247q0-7.733,0-15.465c0-1.568.644-2.234,2.178-2.241,1.987-.01,3.975-.03,5.961.021a1.657,1.657,0,0,1,1.173.512c1.526,2.135,3.547,2.684,6.111,2.541,3.79-.211,7.6-.057,11.4-.053,1.546,0,2.2.651,2.2,2.214q.01,6.264,0,12.528c0,1.55-.649,2.183-2.226,2.185q-6.177.01-12.355,0Zm-2.956-11.495c-.942,0-1.768.024-2.593-.007-.724-.027-1.062.242-1.045,1q.045,2.029,0,4.059c-.018.753.3,1.037,1.033,1.01.848-.032,1.7-.008,2.606-.008,0,1,.022,1.829-.007,2.661-.024.7.279.988.977.976,1.324-.023,2.65-.037,3.973.006.81.026,1.171-.254,1.123-1.095-.046-.82-.01-1.644-.01-2.548,1,0,1.855-.017,2.713.006.668.017.931-.284.921-.937-.019-1.382-.022-2.764,0-4.146.012-.692-.259-1.008-.969-.984-.854.028-1.709.007-2.668.007,0-.975-.015-1.831,0-2.686.015-.645-.24-.958-.914-.949q-2.116.029-4.232,0c-.668-.008-.933.3-.918.948C478.009,1206.106,477.994,1206.961,477.994,1207.937Z" transform="translate(-465.289 -1184.346)" fill="#fff"/>
        <path id="Path_1475" data-name="Path 1475" d="M514.09,1119.374v15.609c-.245.017-.49.05-.736.05-3.456,0-6.912.018-10.368-.019a2.237,2.237,0,0,1-1.187-.486,5.784,5.784,0,0,1-1.228-1.208,3.292,3.292,0,0,0-3.309-1.335,22.894,22.894,0,0,1-2.453.016v-12.627Zm-8.3,10.788a13.576,13.576,0,0,0-.505-2.777c-.342-.848-1.289-.783-2.1-.863-.548-.053-.694-.522-.4-.972a4.355,4.355,0,0,0,.409-2.93,2.371,2.371,0,0,0-2.1-2.086,2.211,2.211,0,0,0-2.453,1.481,6.57,6.57,0,0,0-.007,3.026c.392,1.428.524,1.406-.912,1.531a1.79,1.79,0,0,0-1.714,1.546,18.854,18.854,0,0,0-.014,2.017h1.191c0-.466.024-.869-.005-1.267-.056-.753.211-1.151,1.026-1.093a1.9,1.9,0,0,0,1.758-.89c.3-.419,1.376-.511,1.63-.109a2.083,2.083,0,0,0,2.044,1.009c.593-.03.817.306.8.865-.012.506,0,1.012,0,1.513Zm4.085-6.012c3.558-.062,2.984.577,3.033-2.77,0-.058.023-.139-.007-.169-.233-.236-.469-.651-.718-.661-1.522-.062-3.049-.066-4.57,0a1.068,1.068,0,0,0-.72.72,13.826,13.826,0,0,0-.04,2.065c0,.586.3.822.865.814C508.433,1124.141,509.152,1124.15,509.871,1124.151Zm3,2.39v-1.14h-5.96v1.14Zm0,1.279H506.9v1.115h5.965Zm0,2.43h-5.949v1.119h5.949Zm-6,3.528h5.974v-1.1h-5.974Z" transform="translate(-488.701 -1118.098)" fill="#fff"/>
        <path id="Path_1476" data-name="Path 1476" d="M627.49,1188.994c1.292,0,2.442.016,3.591,0a2.4,2.4,0,0,1,2.288,3.073c-1.105,3.628-2.042,7.308-3.049,10.967a2.323,2.323,0,0,1-.411.895v-2.059c0-1.985-.01-3.97,0-5.955a3.078,3.078,0,0,0-2-3.116.757.757,0,0,1-.4-.532C627.471,1191.206,627.49,1190.148,627.49,1188.994Z" transform="translate(-598.447 -1175.682)" fill="#fff"/>
        <path id="Path_1477" data-name="Path 1477" d="M613.911,1133.186H615v13.225h-1.086Z" transform="translate(-587.219 -1129.522)" fill="#fff"/>
        <path id="Path_1478" data-name="Path 1478" d="M515.564,1231.086c0-.975.015-1.831,0-2.685-.015-.648.25-.956.918-.948q2.116.025,4.232,0c.674-.009.929.3.914.949-.02.855,0,1.711,0,2.686.958,0,1.814.022,2.668-.007.71-.024.98.292.969.984-.023,1.382-.02,2.764,0,4.146.009.653-.253.955-.921.937-.858-.023-1.716-.006-2.713-.006,0,.9-.036,1.728.01,2.548.047.84-.313,1.121-1.123,1.095-1.323-.043-2.649-.029-3.973-.006-.7.012-1-.272-.977-.976.028-.832.007-1.665.007-2.661-.908,0-1.758-.024-2.606.007-.732.028-1.051-.256-1.033-1.01q.048-2.029,0-4.059c-.017-.759.322-1.028,1.045-1C513.8,1231.109,514.622,1231.086,515.564,1231.086Zm-2.357,1.216v3.624c.907,0,1.762.02,2.615-.006.7-.022.993.287.972.982-.026.852-.006,1.7-.006,2.59H520.4c0-.887.024-1.715-.007-2.541-.028-.733.263-1.061,1.012-1.032.849.032,1.7.007,2.552.007V1232.3c-.642,0-1.213,0-1.784,0-1.773.01-1.773.011-1.773-1.8v-1.749h-3.622c0,.91-.021,1.742.007,2.573.023.693-.252,1.008-.963.984C514.969,1232.28,514.114,1232.3,513.207,1232.3Z" transform="translate(-502.858 -1207.495)" fill="#42779d"/>
        <path id="Path_1479" data-name="Path 1479" d="M511.312,1135.632h-1.354c0-.5-.01-1.007,0-1.513.013-.559-.211-.895-.8-.865a2.083,2.083,0,0,1-2.044-1.009c-.254-.4-1.33-.311-1.63.109a1.9,1.9,0,0,1-1.758.89c-.815-.058-1.082.34-1.026,1.093.03.4.005.8.005,1.267h-1.191a18.86,18.86,0,0,1,.014-2.017,1.79,1.79,0,0,1,1.714-1.546c1.436-.125,1.3-.1.912-1.531a6.57,6.57,0,0,1,.007-3.026,2.211,2.211,0,0,1,2.453-1.481,2.371,2.371,0,0,1,2.1,2.086,4.355,4.355,0,0,1-.409,2.93c-.3.45-.153.919.4.972.815.079,1.763.015,2.1.863A13.575,13.575,0,0,1,511.312,1135.632Zm-6.173-6.644h-.015c0,.173-.007.346,0,.518a1.252,1.252,0,0,0,1.2,1.315,1.224,1.224,0,0,0,1.21-1.3,7.637,7.637,0,0,0-.013-1.207,1.132,1.132,0,0,0-1.134-1.092,1.157,1.157,0,0,0-1.242,1.073A3.8,3.8,0,0,0,505.139,1128.988Z" transform="translate(-494.228 -1123.568)" fill="#42779d"/>
        <path id="Path_1480" data-name="Path 1480" d="M567.4,1129.556c-.719,0-1.438-.009-2.157,0-.563.009-.869-.228-.865-.814a13.83,13.83,0,0,1,.04-2.065,1.068,1.068,0,0,1,.72-.72c1.521-.068,3.049-.064,4.57,0,.249.01.485.425.718.661.029.03.008.111.007.169C570.385,1130.133,570.959,1129.495,567.4,1129.556Zm-1.752-2.373v1.1h3.538v-1.1Z" transform="translate(-546.231 -1123.504)" fill="#42779d"/>
        <path id="Path_1481" data-name="Path 1481" d="M570.766,1155.381h-5.96v-1.14h5.96Z" transform="translate(-546.601 -1146.939)" fill="#42779d"/>
        <path id="Path_1482" data-name="Path 1482" d="M570.754,1168.24v1.115h-5.965v-1.115Z" transform="translate(-546.587 -1158.518)" fill="#42779d"/>
        <path id="Path_1483" data-name="Path 1483" d="M570.824,1182.3v1.119h-5.949V1182.3Z" transform="translate(-546.658 -1170.151)" fill="#42779d"/>
        <path id="Path_1484" data-name="Path 1484" d="M564.576,1197.473v-1.1h5.974v1.1Z" transform="translate(-546.411 -1181.793)" fill="#42779d"/>
        <path id="Path_1485" data-name="Path 1485" d="M519.348,1238.531c.907,0,1.763-.022,2.616.007.711.024.987-.29.963-.983-.028-.83-.007-1.662-.007-2.573h3.623v1.749c0,1.813,0,1.812,1.773,1.8.57,0,1.141,0,1.784,0v3.622c-.851,0-1.7.024-2.551-.007-.75-.028-1.04.3-1.012,1.032.032.825.007,1.653.007,2.541h-3.615c0-.886-.019-1.738.006-2.59.021-.695-.267-1-.972-.982-.854.027-1.709.006-2.615.006Z" transform="translate(-508.999 -1213.725)" fill="#fff"/>
        <path id="Path_1486" data-name="Path 1486" d="M522.52,1134.912a3.794,3.794,0,0,1,.007-.689,1.157,1.157,0,0,1,1.242-1.073,1.132,1.132,0,0,1,1.134,1.092,7.65,7.65,0,0,1,.013,1.207,1.224,1.224,0,0,1-1.21,1.3,1.251,1.251,0,0,1-1.2-1.314c-.008-.172,0-.345,0-.518Z" transform="translate(-511.608 -1129.491)" fill="#fff"/>
        <path id="Path_1487" data-name="Path 1487" d="M571.818,1133.277h3.538v1.1h-3.538Z" transform="translate(-552.401 -1129.598)" fill="#fff"/>
      </g>
      <g id="Ellipse_143" data-name="Ellipse 143" transform="translate(-754 -1706)" fill="#e40a0a" stroke="#fff" stroke-width="1">
        <circle cx="5.5" cy="5.5" r="5.5" stroke="none"/>
        <circle cx="5.5" cy="5.5" r="5" fill="none"/>
      </g>
    </g>
  </g>
</svg>
