<?xml version="1.0" encoding="utf-8"?>
<!-- Generator: Adobe Illustrator 24.0.1, SVG Export Plug-In . SVG Version: 6.00 Build 0)  -->
<svg version="1.1" id="Layer_1" xmlns="http://www.w3.org/2000/svg" xmlns:xlink="http://www.w3.org/1999/xlink" x="0px" y="0px"
	 viewBox="0 0 493 493" style="enable-background:new 0 0 493 493;" xml:space="preserve">
<style type="text/css">
	.st0{fill:#FFFFFF;}
</style>
<path class="st0" d="M337.8,374.3h83.1c3.3,0,6,2.7,6,6c0,3.3-2.7,6-6,6h-83.1c-3.3,0-6-2.7-6-6C331.8,377,334.5,374.3,337.8,374.3z
	"/>
<path class="st0" d="M25.5,22.7h126.7C158.8,8.8,172.9,0,188.3,0c15.4,0,29.4,8.8,36.1,22.7h126.7c13.8,0,24.9,11.2,24.9,24.9v220.1
	c1.1,0,2.2-0.1,3.4-0.1c58.4,0,107.2,44.7,112.2,102.9c0.3,3.2,0.4,6.5,0.4,9.8c0,35.2-16.4,68.4-44.5,89.7
	c-42.1,32-100.7,30.4-141-3.8h-281c-13.8,0-24.9-11.2-24.9-24.9V47.6C0.6,33.9,11.7,22.7,25.5,22.7z M188.3,12
	c-15.5,0-28.1,12.6-28.1,28.1v17c0,3.3-2.7,6-6,6H97.7v33.4h181.1V63.1h-56.5c-3.3,0-6-2.7-6-6v-17C216.3,24.6,203.8,12,188.3,12z
	 M85.8,102.5V86.8H59.9c-1.9,0-3.5,1.6-3.5,3.5v257.5h30.3c13.8,0,24.9,11.2,24.9,24.9v29.5h157.1c-9.1-46.1,11.4-92.9,51.3-117.6
	V90.3c0-1.9-1.6-3.5-3.5-3.5h-25.8v15.7c0,3.3-2.7,6-6,6H91.8C88.4,108.5,85.8,105.8,85.8,102.5z M64.7,359.7l35,35v-22
	c0-7.1-5.8-12.9-12.9-12.9H64.7z M364,47.6c0-7.1-5.8-12.9-12.9-12.9H228c0.2,1.8,0.4,3.6,0.4,5.4v11h56.5c3.3,0,6,2.7,6,6v17.7
	h25.8c8.5,0,15.4,6.9,15.5,15.5V278c2.7-1.2,5.4-2.4,8.2-3.4c7.7-2.8,15.6-4.8,23.7-5.9V47.6z M440.3,460.5
	c25.1-19,39.8-48.7,39.7-80.1c0-2.9-0.1-5.8-0.4-8.7c-4-45.8-38.4-83-83.8-90.6c-45.3-7.5-90,16.5-108.6,58.5
	c-18.6,42-6.4,91.3,29.6,119.8C353,487.8,403.7,488.3,440.3,460.5z M12.6,441.3c0,7.1,5.8,12.9,12.9,12.9h268.9
	c-10.2-11.7-17.9-25.3-22.5-40.1H109.3c-0.8,0-1.5-0.1-2.3-0.2c-2.1,0.5-4.4-0.2-5.9-1.9c-1.5-0.8-2.9-1.8-4.1-3.1l-47.5-47.5
	c-3.3-3.2-5.1-7.7-5.1-12.3v-259c0-8.5,6.9-15.4,15.5-15.5h25.8V57.1c0-3.3,2.7-6,6-6h56.5v-11c0-1.8,0.1-3.6,0.4-5.4H25.5
	c-7.1,0-12.9,5.8-12.9,12.9V441.3z"/>
<path class="st0" d="M98.9,156.3c3.3,0,6,2.7,6,6c0,3.3-2.7,6-6,6h-7.1c-3.3,0-6-2.7-6-6c0-3.3,2.7-6,6-6H98.9z"/>
<path class="st0" d="M225.3,168.3H121c-3.3,0-6-2.7-6-6c0-3.3,2.7-6,6-6h104.3c3.3,0,6,2.7,6,6C231.3,165.6,228.6,168.3,225.3,168.3
	z"/>
<path class="st0" d="M284.8,168.3h-36.9c-3.3,0-6-2.7-6-6c0-3.3,2.7-6,6-6h36.9c3.3,0,6,2.7,6,6
	C290.8,165.6,288.1,168.3,284.8,168.3z"/>
<path class="st0" d="M91.8,207.4h19.9c3.3,0,6,2.7,6,6c0,3.3-2.7,6-6,6H91.8c-3.3,0-6-2.7-6-6C85.8,210,88.4,207.4,91.8,207.4z"/>
<path class="st0" d="M160.4,207.4c3.3,0,6,2.7,6,6c0,3.3-2.7,6-6,6h-27.2c-3.3,0-6-2.7-6-6c0-3.3,2.7-6,6-6H160.4z"/>
<path class="st0" d="M284.8,219.3H179.4c-3.3,0-6-2.7-6-6c0-3.3,2.7-6,6-6h105.4c3.3,0,6,2.7,6,6
	C290.8,216.7,288.1,219.3,284.8,219.3z"/>
<path class="st0" d="M91.8,261.6h42.4c3.3,0,6,2.7,6,6c0,3.3-2.7,6-6,6H91.8c-3.3,0-6-2.7-6-6C85.8,264.2,88.4,261.6,91.8,261.6
	L91.8,261.6z"/>
<path class="st0" d="M149.7,267.6c0-3.3,2.7-6,6-6h129.1c3.3,0,6,2.7,6,6c0,3.3-2.7,6-6,6H155.7
	C152.4,273.6,149.7,270.9,149.7,267.6z"/>
<path class="st0" d="M91.8,311.7h119.5c3.3,0,6,2.7,6,6c0,3.3-2.7,6-6,6H91.8c-3.3,0-6-2.7-6-6C85.8,314.3,88.4,311.7,91.8,311.7z"
	/>
<path class="st0" d="M232.9,311.7h32.5c3.3,0,6,2.7,6,6c0,3.3-2.7,6-6,6h-32.5c-3.3,0-6-2.7-6-6
	C226.9,314.3,229.6,311.7,232.9,311.7z"/>
</svg>
