<?xml version="1.0" encoding="utf-8"?>
<!-- Generator: Adobe Illustrator 24.0.1, SVG Export Plug-In . SVG Version: 6.00 Build 0)  -->
<svg version="1.1" id="Capa_1" xmlns="http://www.w3.org/2000/svg" xmlns:xlink="http://www.w3.org/1999/xlink" x="0px" y="0px"
	 viewBox="0 0 512 512" style="enable-background:new 0 0 512 512;" xml:space="preserve">
<style type="text/css">
	.st0{fill:#000000;}
</style>
<g>
	<g>
		<g>
			<path class="st0" d="M256,182.8c-12.7,0-21.8,5.4-21.8,13.3v107.7c0,6.8,9,13.6,21.8,13.6c12.2,0,22-6.8,22-13.6V196.1
				C278,188.1,268.2,182.8,256,182.8z"/>
			<path class="st0" d="M256,116.4c-13,0-23.2,9.3-23.2,20.1s10.2,20.3,23.2,20.3c12.7,0,22.9-9.6,22.9-20.3
				C278.9,125.7,268.7,116.4,256,116.4z"/>
			<path class="st0" d="M256,0C134.4,0,36,98.3,36,219.9c0,99.2,65.3,181.6,153.4,209.6l50,73.7c3.7,5.5,9.9,8.8,16.6,8.8
				s12.8-3.3,16.6-8.8l50-73.7c88.1-28,153.4-110.4,153.4-209.6C476,98.3,377.5,0,256,0z M304.6,393.1c-4.6,1.3-8.5,4.1-11.2,8
				L256,456.4l-37.5-55.2c-2.7-3.9-6.6-6.8-11.2-8c-75-21-131.4-89.9-131.4-173.2C76,120.7,156.7,40,256,40s180,80.7,180,179.9
				C436,303.3,379.5,372.2,304.6,393.1z"/>
		</g>
	</g>
</g>
</svg>
