<?xml version="1.0" encoding="utf-8"?>
<!-- Generator: Adobe Illustrator 24.0.1, SVG Export Plug-In . SVG Version: 6.00 Build 0)  -->
<svg version="1.1" id="Capa_1" xmlns="http://www.w3.org/2000/svg" xmlns:xlink="http://www.w3.org/1999/xlink" x="0px" y="0px"
	 viewBox="0 0 512 512" style="enable-background:new 0 0 512 512;" xml:space="preserve">
<style type="text/css">
	.st0{fill:#000000;}
</style>
<g>
	<g>
		<g>
			<path class="st0" d="M473.9,85.4c0-0.1,0-0.3-0.1-0.4c-0.1-0.5-0.1-0.9-0.2-1.4c-0.1-0.3-0.1-0.5-0.2-0.8
				c-0.1-0.4-0.2-0.7-0.3-1.1c-0.2-0.7-0.4-1.3-0.6-2c-0.1-0.2-0.1-0.4-0.2-0.6c-0.1-0.1-0.1-0.3-0.2-0.4c-0.1-0.3-0.2-0.6-0.4-0.9
				c0-0.1-0.1-0.2-0.1-0.2c-0.2-0.4-0.3-0.7-0.5-1.1c0,0,0-0.1-0.1-0.1c-0.2-0.4-0.4-0.8-0.6-1.1c0,0,0-0.1-0.1-0.1
				c-0.2-0.4-0.4-0.8-0.7-1.1c0,0,0-0.1-0.1-0.1c-0.2-0.4-0.5-0.7-0.7-1.1c0,0-0.1-0.1-0.1-0.1c-0.2-0.3-0.5-0.7-0.8-1
				c0-0.1-0.1-0.1-0.1-0.2c-0.2-0.3-0.5-0.6-0.8-0.9c-0.1-0.1-0.1-0.1-0.2-0.2c-0.3-0.3-0.5-0.6-0.8-0.9c-0.1-0.1-0.1-0.1-0.2-0.2
				c-0.3-0.3-0.7-0.7-1-1l-32.9-30.4L399.4,7.5c-0.5-0.4-0.9-0.8-1.4-1.2c-0.1-0.1-0.2-0.2-0.3-0.2c-1-0.8-2-1.5-3.1-2.1
				c0,0-0.1,0-0.1-0.1c-0.7-0.4-1.4-0.7-2.1-1.1c-0.1-0.1-0.3-0.1-0.4-0.2c-0.6-0.3-1.3-0.6-1.9-0.8c-0.1,0-0.1-0.1-0.2-0.1
				c-1.5-0.6-3.1-1-4.7-1.3c0,0,0,0-0.1,0c0,0,0,0-0.1,0c-1.6-0.3-3.1-0.4-4.7-0.4H204.9c-17.8,0-32.2,14.4-32.2,32.2v213.6
				c-0.6,0-1.1,0-1.7,0c-73.4,0-133.1,59.7-133.1,133.1S97.6,512,171,512c59.4,0,109.8-39.1,126.9-92.8h144.1
				c17.8,0,32.2-14.5,32.2-32.2V88.9C474.1,87.7,474,86.5,473.9,85.4z M393.3,29.1l52.5,48.5h-47.6c-2.7,0-4.9-2.2-4.9-4.9V29.1z
				 M282.3,399.2c-1.3,6.9-3.1,13.6-5.6,20C260.4,461.7,219.2,492,171,492c-62.4,0-113.1-50.7-113.1-113.1S108.6,265.8,171,265.8
				c0.6,0,1.1,0,1.7,0c6.8,0.1,13.5,0.8,20,2.1c52,10.1,91.4,56.1,91.4,111C284.1,385.8,283.5,392.6,282.3,399.2z M454.1,387
				L454.1,387c0,6.7-5.5,12.2-12.2,12.2H302.5c1-6.6,1.5-13.4,1.5-20.3c0-66-48.3-121-111.4-131.3V32.2c0-6.7,5.5-12.2,12.2-12.2
				h168.5v52.8c0,13.7,11.2,24.9,24.9,24.9h55.9V387z"/>
			<path class="st0" d="M192.6,286.5c-6.4-1.6-13.1-2.5-20-2.7c-0.9,0-1.7,0-2.6,0c-52.9,0-95.9,43-95.9,95.9
				c0,17.4,4.7,34.5,13.7,49.3c2.8,4.7,9,6.3,13.7,3.4c4.7-2.8,6.3-9,3.4-13.7c-7.1-11.8-10.8-25.3-10.8-39
				c0-41.9,34.1-75.9,75.9-75.9c0.9,0,1.7,0,2.6,0.1c6.9,0.2,13.6,1.4,20,3.4c30.9,9.6,53.4,38.5,53.4,72.5c0,6.7-0.9,13.2-2.5,19.4
				c-1.9,7.1-4.8,13.9-8.5,20c-13.3,21.9-37.4,36.5-64.9,36.5c-3.5,0-7-0.2-10.5-0.7c-5.5-0.7-10.5,3.1-11.3,8.5
				c-0.8,5.5,3.1,10.5,8.5,11.3c4.3,0.6,8.8,0.9,13.2,0.9c38.9,0,72.4-23.2,87.5-56.5c2.9-6.3,5.1-13,6.5-20c1.3-6.3,2-12.7,2-19.4
				C266,334.7,234.7,296.7,192.6,286.5z"/>
			<path class="st0" d="M248.8,124.8c-5.5,0-10,4.5-10,10s4.5,10,10,10H398c5.5,0,10-4.5,10-10s-4.5-10-10-10
				C398,124.8,248.8,124.8,248.8,124.8z"/>
			<path class="st0" d="M368,198.4c0-5.5-4.5-10-10-10H248.8c-5.5,0-10,4.5-10,10s4.5,10,10,10H358C363.6,208.4,368,203.9,368,198.4
				z"/>
			<path class="st0" d="M398,252h-96.4c-5.5,0-10,4.5-10,10s4.5,10,10,10H398c5.5,0,10-4.5,10-10S403.6,252,398,252z"/>
			<path class="st0" d="M398,315.7h-69.7c-5.5,0-10,4.5-10,10s4.5,10,10,10H398c5.5,0,10-4.5,10-10S403.6,315.7,398,315.7z"/>
			<path class="st0" d="M170.1,389.8h2.7H193h10.7c5.5,0,10-4.5,10-10s-4.5-10-10-10h-11h-16.8l-3.2-5.5l-20.1-34.6
				c-2.8-4.8-8.9-6.4-13.7-3.6c-4.8,2.8-6.4,8.9-3.6,13.7l26.2,45.1C163.2,387.9,166.5,389.8,170.1,389.8z"/>
			<path class="st0" d="M131.2,447.2c-0.3-0.6-0.6-1.2-0.9-1.7c-0.4-0.5-0.8-1.1-1.2-1.5s-1-0.9-1.5-1.2c-0.5-0.4-1.1-0.7-1.7-0.9
				c-0.6-0.3-1.2-0.5-1.9-0.6c-1.3-0.3-2.6-0.3-3.9,0c-0.6,0.1-1.3,0.3-1.9,0.6c-0.6,0.3-1.2,0.6-1.7,0.9c-0.6,0.4-1.1,0.8-1.5,1.2
				c-0.5,0.5-0.9,1-1.3,1.5c-0.4,0.5-0.7,1.1-0.9,1.7c-0.3,0.6-0.4,1.2-0.6,1.9c-0.1,0.6-0.2,1.3-0.2,2s0.1,1.3,0.2,2
				c0.1,0.6,0.3,1.3,0.6,1.9c0.3,0.6,0.6,1.2,0.9,1.7c0.4,0.5,0.8,1.1,1.3,1.5c0.5,0.5,1,0.9,1.5,1.2c0.5,0.4,1.1,0.7,1.7,0.9
				c0.6,0.3,1.2,0.5,1.9,0.6c0.7,0.1,1.3,0.2,2,0.2c0.7,0,1.3-0.1,1.9-0.2c0.6-0.1,1.3-0.3,1.9-0.6c0.6-0.3,1.2-0.6,1.7-0.9
				c0.6-0.4,1.1-0.8,1.5-1.2s0.9-1,1.2-1.5c0.4-0.5,0.7-1.1,0.9-1.7c0.3-0.6,0.4-1.2,0.6-1.9c0.1-0.6,0.2-1.3,0.2-2s-0.1-1.3-0.2-2
				C131.6,448.4,131.4,447.8,131.2,447.2z"/>
			<path class="st0" d="M407.3,194c-0.3-0.6-0.6-1.2-0.9-1.7c-0.4-0.6-0.8-1.1-1.2-1.5c-0.5-0.5-1-0.9-1.5-1.2
				c-0.5-0.4-1.1-0.7-1.7-0.9c-0.6-0.3-1.2-0.4-1.9-0.6c-1.3-0.3-2.6-0.3-3.9,0c-0.6,0.1-1.3,0.3-1.9,0.6s-1.2,0.6-1.7,0.9
				c-0.5,0.4-1.1,0.8-1.5,1.2c-0.5,0.5-0.9,1-1.3,1.5c-0.4,0.5-0.7,1.1-0.9,1.7c-0.3,0.6-0.4,1.2-0.6,1.9c-0.1,0.6-0.2,1.3-0.2,1.9
				s0.1,1.3,0.2,2c0.1,0.6,0.3,1.3,0.6,1.9c0.3,0.6,0.6,1.2,0.9,1.7c0.4,0.6,0.8,1.1,1.3,1.5c0.5,0.5,1,0.9,1.5,1.3
				c0.5,0.4,1.1,0.7,1.7,0.9s1.2,0.4,1.9,0.6c0.6,0.1,1.3,0.2,2,0.2s1.3-0.1,2-0.2s1.3-0.3,1.9-0.6s1.2-0.6,1.7-0.9
				c0.5-0.4,1.1-0.8,1.5-1.3s0.9-1,1.2-1.5c0.4-0.5,0.7-1.1,0.9-1.7c0.3-0.6,0.4-1.2,0.6-1.9c0.1-0.6,0.2-1.3,0.2-2
				s-0.1-1.3-0.2-1.9C407.7,195.3,407.5,194.6,407.3,194z"/>
		</g>
	</g>
</g>
</svg>
