<?xml version="1.0" encoding="utf-8"?>
<!-- Generator: Adobe Illustrator 24.0.1, SVG Export Plug-In . SVG Version: 6.00 Build 0)  -->
<svg version="1.1" id="Capa_1" xmlns="http://www.w3.org/2000/svg" xmlns:xlink="http://www.w3.org/1999/xlink" x="0px" y="0px"
	 viewBox="0 0 512 512" style="enable-background:new 0 0 512 512;" xml:space="preserve">
<style type="text/css">
	.st0{fill:#000000;}
</style>
<g>
	<g>
		<path class="st0" d="M510,463.7l-35.1-102.3c16.9-34.2,25.8-72.3,25.9-110.6c0.1-66-25.4-128.4-71.9-175.7
			c-46.5-47.3-108.4-74-174.4-75c-34.6-0.6-68.1,5.8-99.8,18.9c-30.5,12.6-57.9,30.9-81.3,54.4c-23.5,23.5-41.8,50.8-54.4,81.3
			C5.9,186.3-0.5,219.9,0,254.4c1,66,27.7,127.9,75,174.4c47.2,46.4,109.5,71.9,175.3,71.9c0.1,0,0.3,0,0.4,0
			c38.3-0.1,76.4-9,110.6-25.9L463.7,510c3.9,1.4,8,2,12,2c9.5,0,18.7-3.7,25.7-10.7C511.2,491.4,514.6,476.9,510,463.7z
			 M479.8,479.8c-1,1-3.2,2.5-6.3,1.5L365.1,444c-1.6-0.5-3.3-0.8-4.9-0.8c-2.5,0-4.9,0.6-7.1,1.8c-31.3,16.6-66.7,25.4-102.4,25.4
			c-119.6,0.2-218.4-96.9-220.3-216.4c-1-60.1,21.9-116.7,64.4-159.2c42.5-42.5,99-65.4,159.2-64.4
			c119.5,1.9,216.6,100.7,216.4,220.3c-0.1,35.6-8.8,71-25.4,102.4c-2,3.7-2.3,8.1-0.9,12l37.2,108.4
			C482.4,476.7,480.8,478.8,479.8,479.8z"/>
	</g>
</g>
<g>
	<g>
		<path class="st0" d="M247.9,362.7c-7.9,0-15.5,7-15.2,15.2c0.4,8.2,6.7,15.2,15.2,15.2c7.9,0,15.5-7,15.2-15.2
			C262.7,369.7,256.4,362.7,247.9,362.7z"/>
	</g>
</g>
<g>
	<g>
		<path class="st0" d="M247.9,127.7c-41.6,0-75.5,33.9-75.5,75.5c0,8.4,6.8,15.2,15.2,15.2s15.2-6.8,15.2-15.2
			c0-24.9,20.3-45.2,45.2-45.2s45.2,20.3,45.2,45.2s-20.3,45.2-45.2,45.2c-8.4,0-15.2,6.8-15.2,15.2v61.9c0,8.4,6.8,15.2,15.2,15.2
			s15.2-6.8,15.2-15.2v-48.3c34.4-7,60.3-37.5,60.3-74C323.4,161.6,289.5,127.7,247.9,127.7z"/>
	</g>
</g>
</svg>
