<?xml version="1.0" encoding="utf-8"?>
<!-- Generator: Adobe Illustrator 24.0.1, SVG Export Plug-In . SVG Version: 6.00 Build 0)  -->
<svg version="1.1" id="Layer_1" xmlns="http://www.w3.org/2000/svg" xmlns:xlink="http://www.w3.org/1999/xlink" x="0px" y="0px"
	 viewBox="0 0 512 512" style="enable-background:new 0 0 512 512;" xml:space="preserve">
<style type="text/css">
	.st0{fill:#000000;}
</style>
<g id="Outline">
	<path class="st0" d="M482.3,357.8c-3.1-3.1-8.2-3.1-11.3,0l-5.7,5.7l-15.7-15.7c-7.9-22.8-20.9-43.5-37.9-60.6L397.4,273
		c-9.3-9.4-24.5-9.4-33.8-0.1c-2,2-3.6,4.2-4.8,6.7l-1-1c-9.3-9.4-24.5-9.4-33.9,0c-2.9,2.9-5.1,6.6-6.2,10.6
		c-10.9-2.5-22.1,3-26.8,13.1l-12.3-12.3c-9.4-9.4-24.6-9.4-33.9,0c-9.4,9.4-9.4,24.6,0,33.9l47.4,47.4l-3,8.9
		c-7.5,22.4,4.6,46.5,27,54c7,2.3,14.6,2.8,21.9,1.4l25.8-5.2c5.2-1.1,10.7,0.6,14.5,4.4l7.9,7.9l-5.7,5.7c-3.1,3.1-3.1,8.2,0,11.3
		c0,0,0,0,0,0l22.6,22.6l11.3-11.3l-17-17l79.2-79.2l17,17l11.3-11.3L482.3,357.8z M389.5,423.5c-7.6-7.6-18.4-10.9-28.9-8.8
		l-25.8,5.2c-14.5,2.9-28.5-6.5-31.4-20.9c-0.9-4.6-0.6-9.3,0.9-13.7l0.4-1.3l13.5,13.5l11.3-11.3L256,312.6
		c-3.1-3.1-3.2-8.2-0.1-11.3c3.1-3.1,8.2-3.2,11.3-0.1c0,0,0,0,0.1,0.1l50.9,50.9l11.3-11.3l-22.6-22.6c-3.1-3.1-3.2-8.2-0.1-11.3
		c3.1-3.1,8.2-3.2,11.3-0.1c0,0,0,0,0.1,0.1l22.6,22.6l0,0l11.3-11.3l-17-17c-3.1-3.1-3.1-8.2,0.1-11.3c3.1-3.1,8.1-3.1,11.2,0
		l22.6,22.6l11.3-11.3l0,0l-5.7-5.7c-3.1-3.1-3.2-8.2-0.1-11.3c3.1-3.1,8.2-3.2,11.3-0.1c0,0,0,0,0.1,0.1l14.3,14.3
		c15.7,15.8,27.6,35,34.7,56.1c0.4,1.2,1.1,2.2,1.9,3.1l17,17l-56.6,56.6L389.5,423.5z"/>
	<path class="st0" d="M35.4,156.5c2.1,0,4.2-0.8,5.7-2.3l5.7-5.7l15.7,15.7c7.9,22.8,20.9,43.5,37.9,60.6l14.3,14.3
		c9.3,9.4,24.5,9.4,33.8,0.1c2-2,3.6-4.2,4.8-6.7l1,1c9.3,9.4,24.5,9.4,33.9,0c2.9-2.9,5.1-6.6,6.2-10.6c1.7,0.4,3.4,0.6,5.2,0.6
		c9.3,0,17.7-5.3,21.6-13.7l12.3,12.3c9.4,9.4,24.6,9.4,33.9,0c9.4-9.4,9.4-24.6,0-33.9l-47.4-47.4l3-8.9c7.5-22.4-4.6-46.5-27-54
		c-7-2.3-14.6-2.8-21.9-1.4l-25.8,5.2c-5.2,1.1-10.7-0.6-14.5-4.4l-7.9-7.9l5.7-5.7c3.1-3.1,3.1-8.2,0-11.3c0,0,0,0,0,0l-22.6-22.6
		L97.6,41l17,17l-79.2,79.2l-17-17L7.1,131.6l22.6,22.6C31.2,155.7,33.3,156.5,35.4,156.5z M122.5,88.5c7.6,7.6,18.4,10.9,28.9,8.8
		l25.8-5.2c14.5-2.9,28.5,6.5,31.4,20.9c0.9,4.6,0.6,9.3-0.9,13.7l-0.4,1.3l-13.5-13.5l-11.3,11.3l73.5,73.5
		c3.1,3.1,3.2,8.2,0.1,11.3s-8.2,3.2-11.3,0.1c0,0,0,0-0.1-0.1l-50.9-50.9l-11.3,11.3l22.6,22.6c3.1,3.1,3.1,8.2-0.1,11.3
		c-3.1,3.1-8.1,3.1-11.2,0l-22.6-22.6l0,0l-11.3,11.3l17,17c3.1,3.1,3.1,8.2-0.1,11.3c-3.1,3.1-8.1,3.1-11.2,0l-22.6-22.6
		l-11.3,11.3l0,0l5.7,5.7c3.1,3.1,3.2,8.2,0.1,11.3c-3.1,3.1-8.2,3.2-11.3,0.1c0,0,0,0-0.1-0.1l-14.3-14.3
		c-15.7-15.8-27.6-35-34.7-56.1c-0.4-1.2-1.1-2.2-1.9-3.1l-17-17l56.6-56.6L122.5,88.5z"/>
	<path class="st0" d="M279.6,153.2l-1,1c-9.4,9.3-9.4,24.5,0,33.9c2.9,2.9,6.6,5.1,10.6,6.2c-2.5,10.9,3,22.1,13.1,26.8l-12.3,12.3
		c-9.4,9.4-9.4,24.6,0,33.9c9.4,9.4,24.6,9.4,33.9,0l47.4-47.4l8.9,3c4.4,1.5,9,2.2,13.6,2.2c23.6-0.1,42.7-19.3,42.6-42.9
		c0-2.8-0.3-5.5-0.8-8.2l-5.2-25.8c-1.1-5.2,0.6-10.7,4.4-14.5l7.9-7.9l5.7,5.7c3.1,3.1,8.2,3.1,11.3,0c0,0,0,0,0,0l22.6-22.6
		L471,97.6l-17,17l-79.2-79.2l17-17L380.5,7.1l-22.6,22.6c-3.1,3.1-3.1,8.2,0,11.3l5.7,5.7l-15.7,15.7
		c-22.8,7.9-43.5,20.9-60.6,37.9L273,114.6c-9.4,9.3-9.4,24.5-0.1,33.8C274.8,150.4,277.1,152,279.6,153.2L279.6,153.2z
		 M284.3,125.9l14.3-14.3c15.8-15.7,35-27.6,56.1-34.7c1.2-0.4,2.2-1.1,3.1-1.9l17-17l56.6,56.6l-7.9,7.9
		c-7.6,7.6-10.9,18.4-8.8,28.9l5.2,25.8c2.9,14.5-6.5,28.5-20.9,31.4c-4.6,0.9-9.3,0.6-13.7-0.9l-1.3-0.4l13.5-13.5l-11.3-11.3
		L312.6,256c-3.1,3.1-8.2,3.2-11.3,0.1c-3.1-3.1-3.2-8.2-0.1-11.3c0,0,0,0,0.1-0.1l50.9-50.9l-11.3-11.3l-22.6,22.6
		c-3.1,3.1-8.2,3.2-11.3,0.1c-3.1-3.1-3.2-8.2-0.1-11.3c0,0,0,0,0.1-0.1l22.6-22.6l0,0l-11.3-11.3l-17,17c-3.1,3.1-8.2,3.1-11.3-0.1
		c-3.1-3.1-3.1-8.1,0-11.2l22.6-22.6l-11.3-11.3l0,0l-5.7,5.7c-3.1,3.1-8.2,3.2-11.3,0.1C281.1,134.2,281.1,129.1,284.3,125.9
		C284.2,125.9,284.3,125.9,284.3,125.9L284.3,125.9z"/>
	<path class="st0" d="M232.4,358.8l1-1c9.4-9.3,9.4-24.5,0-33.9c-2.9-2.9-6.6-5.1-10.6-6.2c2.5-10.9-3-22.1-13.1-26.8l12.3-12.3
		c9.4-9.4,9.4-24.6,0-33.9c-9.4-9.4-24.6-9.4-33.9,0l-47.4,47.4l-8.9-3c-22.4-7.5-46.5,4.6-54,27c-2.3,7-2.8,14.6-1.4,21.9l5.2,25.8
		c1.1,5.2-0.6,10.7-4.4,14.5l-7.9,7.9l-5.7-5.7c-3.1-3.1-8.2-3.1-11.3,0c0,0,0,0,0,0l-22.6,22.6L41,414.4l17-17l79.2,79.2l-17,17
		l11.3,11.3l22.6-22.6c3.1-3.1,3.1-8.2,0-11.3l-5.7-5.7l15.7-15.7c22.8-7.9,43.5-20.9,60.6-37.9l14.3-14.3
		c9.4-9.3,9.4-24.5,0.1-33.8C237.2,361.6,234.9,360,232.4,358.8L232.4,358.8z M227.7,386.1l-14.3,14.3c-15.8,15.7-35,27.6-56.1,34.7
		c-1.2,0.4-2.2,1.1-3.1,1.9l-17,17l-56.6-56.6l7.9-7.9c7.6-7.6,10.9-18.4,8.8-28.9l-5.2-25.8c-2.9-14.5,6.5-28.5,20.9-31.4
		c4.6-0.9,9.3-0.6,13.7,0.9l1.3,0.4l-13.5,13.5l11.3,11.3l73.5-73.5c3.1-3.1,8.2-3.2,11.3-0.1c3.1,3.1,3.2,8.2,0.1,11.3
		c0,0,0,0-0.1,0.1l-50.9,50.9l11.3,11.3l22.6-22.6c3.1-3.1,8.2-3.2,11.3-0.1s3.2,8.2,0.1,11.3c0,0,0,0-0.1,0.1l-22.6,22.6l0,0
		l11.3,11.3l17-17c3.1-3.1,8.2-3.1,11.3,0.1c3.1,3.1,3.1,8.1,0,11.2l-22.6,22.6l11.3,11.3l0,0l5.7-5.7c3.1-3.1,8.2-3.2,11.3-0.1
		C230.9,377.8,230.9,382.9,227.7,386.1C227.8,386.1,227.7,386.1,227.7,386.1L227.7,386.1z"/>
</g>
</svg>
