<?xml version="1.0" encoding="utf-8"?>
<!-- Generator: Adobe Illustrator 24.0.1, SVG Export Plug-In . SVG Version: 6.00 Build 0)  -->
<svg version="1.1" id="Capa_1" xmlns="http://www.w3.org/2000/svg" xmlns:xlink="http://www.w3.org/1999/xlink" x="0px" y="0px"
	 viewBox="0 0 512 512" style="enable-background:new 0 0 512 512;" xml:space="preserve">
<style type="text/css">
	.st0{fill:#000000;}
</style>
<g>
	<g>
		<path class="st0" d="M256,176c-44.1,0-80,35.9-80,80s35.9,80,80,80s80-35.9,80-80S300.1,176,256,176z M256,296
			c-22.1,0-40-17.9-40-40s17.9-40,40-40s40,17.9,40,40S278.1,296,256,296z"/>
	</g>
</g>
<g>
	<g>
		<path class="st0" d="M502.2,315.6L450.4,276c1.5-13.7,1.4-27,0-39.9l51.8-39.7c8-6.2,10.2-17.3,5.1-26l-50.2-85
			c-5-8.5-15.4-12-24.6-8.4l-61.4,24.2c-11.2-8-23.2-14.8-35.9-20.3l-9.2-63.6C324.5,7.3,316.1,0,306.2,0H205.8
			c-9.9,0-18.4,7.3-19.8,17.1l-9.2,63.6c-12.7,5.5-24.7,12.3-35.9,20.3L79.5,76.9c-9.2-3.6-19.6,0-24.6,8.4l-50.2,85
			c-5.1,8.7-3,19.9,5.1,26L61.6,236c-1.5,13.7-1.4,27,0,39.9L9.8,315.6c-8,6.2-10.2,17.3-5.1,26l50.2,85c5,8.5,15.4,12,24.6,8.4
			l61.4-24.2c11.2,8,23.2,14.8,35.9,20.3l9.2,63.6c1.4,9.8,9.9,17.1,19.8,17.1h100.3c9.9,0,18.4-7.3,19.8-17.1l9.2-63.6
			c12.7-5.5,24.7-12.3,35.9-20.3l61.4,24.2c9.1,3.6,19.6,0,24.6-8.4l50.2-85C512.4,333,510.2,321.8,502.2,315.6z M431.3,391.6
			l-56-22.1c-6.7-2.6-14.3-1.5-19.9,3.1c-13.5,11-28.7,19.6-45.1,25.5c-6.9,2.5-11.9,8.6-13,15.9l-8.4,57.9h-65.7l-8.4-57.9
			c-1.1-7.3-6-13.4-13-15.9c-16.4-6-31.6-14.5-45.1-25.5c-5.6-4.5-13.2-5.7-19.9-3.1l-56,22.1l-32.5-55l47-36
			c5.9-4.5,8.8-11.9,7.5-19.3c-2.9-17.1-2.8-34.2,0-50.7c1.3-7.3-1.6-14.8-7.5-19.3l-47-36l32.5-55l56,22.1
			c6.7,2.6,14.3,1.5,19.9-3.1c13.5-11,28.7-19.6,45.1-25.5c6.9-2.5,11.9-8.6,13-15.9l8.4-57.9h65.7l8.4,57.9c1.1,7.3,6,13.4,13,15.9
			c16.4,6,31.6,14.5,45.1,25.5c5.6,4.5,13.2,5.7,19.9,3.1l56-22.1l32.5,55l-47,36c-5.9,4.5-8.8,11.9-7.5,19.3
			c2.9,17.1,2.8,34.2,0,50.7c-1.3,7.3,1.6,14.8,7.5,19.3l47,36L431.3,391.6z"/>
	</g>
</g>
</svg>
