<svg id="Layer_1" data-name="Layer 1" xmlns="http://www.w3.org/2000/svg" xmlns:xlink="http://www.w3.org/1999/xlink" viewBox="0 0 800 600"><defs><style>.cls-1{fill:none;stroke:#000;stroke-linecap:round;stroke-miterlimit:10;stroke-width:3px;}.cls-11,.cls-2,.cls-6,.cls-7,.cls-9{opacity:0.15;}.cls-2{fill:url(#linear-gradient);}.cls-3{opacity:0.08;fill:url(#linear-gradient-2);}.cls-13,.cls-4{opacity:0.32;}.cls-4{fill:url(#linear-gradient-3);}.cls-5{opacity:0.36;fill:url(#linear-gradient-4);}.cls-6{fill:url(#linear-gradient-5);}.cls-7{fill:url(#linear-gradient-6);}.cls-8{opacity:0.14;fill:url(#linear-gradient-7);}.cls-9{fill:url(#linear-gradient-8);}.cls-10,.cls-12{opacity:0.29;}.cls-10{fill:url(#linear-gradient-9);}.cls-11{fill:url(#linear-gradient-10);}.cls-12{fill:url(#linear-gradient-11);}.cls-13{fill:url(#linear-gradient-12);}.cls-14{opacity:0.26;fill:url(#linear-gradient-13);}</style><linearGradient id="linear-gradient" x1="564.6" y1="20.23" x2="506.54" y2="349.49" gradientUnits="userSpaceOnUse"><stop offset="0" stop-color="#00bad4"/><stop offset="0.42" stop-color="#07a3c6"/><stop offset="1" stop-color="#137daf"/></linearGradient><linearGradient id="linear-gradient-2" x1="647.31" y1="238.92" x2="616.05" y2="416.22" xlink:href="#linear-gradient"/><linearGradient id="linear-gradient-3" x1="576.56" y1="481.39" x2="557.58" y2="589.04" xlink:href="#linear-gradient"/><linearGradient id="linear-gradient-4" x1="410.18" y1="488.67" x2="401.25" y2="539.33" xlink:href="#linear-gradient"/><linearGradient id="linear-gradient-5" x1="271.85" y1="417.95" x2="263.15" y2="467.34" xlink:href="#linear-gradient"/><linearGradient id="linear-gradient-6" x1="383.24" y1="377.6" x2="376.19" y2="417.56" xlink:href="#linear-gradient"/><linearGradient id="linear-gradient-7" x1="105.43" y1="23.85" x2="82.43" y2="154.29" xlink:href="#linear-gradient"/><linearGradient id="linear-gradient-8" x1="54.79" y1="418.21" x2="46.78" y2="463.66" xlink:href="#linear-gradient"/><linearGradient id="linear-gradient-9" x1="160.62" y1="181.63" x2="126.23" y2="376.66" xlink:href="#linear-gradient"/><linearGradient id="linear-gradient-10" x1="233.24" y1="136.62" x2="218.83" y2="218.31" xlink:href="#linear-gradient"/><linearGradient id="linear-gradient-11" x1="321.59" y1="18.25" x2="309.2" y2="88.54" xlink:href="#linear-gradient"/><linearGradient id="linear-gradient-12" x1="732.12" y1="8.33" x2="711.24" y2="126.74" xlink:href="#linear-gradient"/><linearGradient id="linear-gradient-13" x1="752.3" y1="214.69" x2="746.38" y2="248.29" xlink:href="#linear-gradient"/></defs><title>No Data Found</title><circle cx="363.88" cy="257.89" r="5.97"/><circle cx="426.41" cy="257.89" r="5.97"/><path d="M464.87,332.64c-2.6-.79-4.21-1-5.49-1.71-5.75-3.4-10.94-2.8-16.5.89-1.72,1.14-5.62.68-7.57-.55-4.57-2.89-8.59-3.75-12.95,0-3.3,2.83-6.66,2.44-9.83-.17-4-3.27-7.88-3.4-11.83-.06-3.47,2.93-7,2.7-10.4,0-3.83-3-7.58-3.31-11.36-.11s-7.68,2.75-11.35-.26c-3.51-2.88-6.92-2.69-10.34.06-3.76,3-7.59,3.46-11.35.14-4.67-4.11-9.16-1.9-13.82,0-6.33,2.61-6.91,2.19-6.91-4.62q0-54.68.1-109.33c0-6.92,2.44-9.41,9.3-9.42,34.33-.06,68.67-.12,103,.07a12.29,12.29,0,0,1,7.5,3.08c6.23,5.68,12.18,11.69,17.89,17.89a11.47,11.47,0,0,1,2.88,7c.08,30.3-.08,60.6-.23,90.91A59.44,59.44,0,0,1,464.87,332.64ZM329.44,327c6.34-1.9,11.82-5.87,17.35-.67,3.22,3,6.55,2.41,9.72-.2,4-3.27,7.89-3.34,11.85,0,3.42,2.88,6.84,2.9,10.28,0,3.94-3.35,7.93-3.27,11.84,0,3.47,2.92,6.87,2.82,10.26-.07,4-3.41,8-3.16,11.85.12,3.52,3,6.89,2.62,10.27-.14,3.76-3.08,7.51-3.29,11.35-.1,3.54,2.93,7.13,3.15,10.78.09,3.45-2.91,7.14-3.16,11.14-1a36.16,36.16,0,0,0,5.25,1.74c.14-2.24.32-3.9.33-5.56q0-36,0-71.92c0-4.58,1.06-9.84-.89-13.27-1.8-3.15-8.72-1.07-13.5-1.75-6-.85-8.2-2.5-8.31-8.57-.09-4.53-.05-9.57-.05-14.14-1.79,0-2.7,0-3.62,0-33.37,0-66.75,0-100.12-.1-4.72,0-5.85,2.19-5.82,6.37.12,15,.05,29.92.05,44.88Zm129.19-96.75c-4.17-4.41-11-10.33-15.11-14.72C441.13,228.7,445.39,231.91,458.63,230.29Z"/><path d="M276.15,387.51h49.1c0-14.36,0-27.35,0-40.34,0-8.46,11.86-15.41,19.15-10.77,5,3.19,9.31,3.84,13.87-.08,3.36-2.91,6.43-1.6,9.31.59,3.8,2.88,7.44,3.53,11.33.22s7.51-3.06,11.29.14c3.57,3,7.23,2.81,10.83-.09s7.13-3.21,10.82-.15,7.5,3.35,11.33.11,7.61-2.84,11.31.2c3.44,2.83,6.64,2.59,10.37.12,4.8-3.17,15.27-1.71,19.37,2.5,1,1,1.34,3.09,1.36,4.68q.14,18.42,0,36.83c0,7.27-2.38,9.63-9.75,9.63-57.92,0-115.95-.67-173.88-.74a29.24,29.24,0,0,1-6-.48Zm119-.57v0c19.94,0,39.87-.09,59.81.07,4.85,0,7-1.54,6.89-6.62-.23-10.92,0-21.86-.16-32.78,0-1.71-.62-4.36-1.76-4.93-4.47-2.22-9.1-5.38-14.21-.91-3.79,3.31-7.87,3.53-11.87.14-3.39-2.86-6.77-3-10.25-.08-3.93,3.3-7.95,3.28-11.92,0-3.2-2.62-6.38-3-9.75-.22-4.29,3.59-8.63,3.38-12.89-.13-2.9-2.39-5.81-2.66-8.76-.11-4.71,4.07-9.19,3.15-14-.11-1.56-1.06-4.87-1.71-6.05-.8-6.09,4.65-11.4,4.24-17.6-.11-4.89-3.42-13.12,2-13.14,8.07,0,10.55.2,21.1-.11,31.63-.16,5.37,2,7,7.1,7C356,386.83,375.56,386.94,395.11,386.94Z"/><path d="M262.46,332.29l-4.4-4.51c-.33-.37-.69-.7-.69-1.17a1.4,1.4,0,0,1,1.44-1.33c.87,0,1.44.78,1.95,1.33l3.65,3.89,3.66-3.89c.51-.55,1.08-1.33,1.95-1.33a1.4,1.4,0,0,1,1.43,1.33c0,.47-.36.8-.68,1.17l-4.41,4.51,4.41,4.52c.32.37.68.7.68,1.17a1.38,1.38,0,0,1-1.43,1.3c-.87,0-1.44-.75-1.95-1.3l-3.66-3.89L260.76,338c-.51.55-1.08,1.3-1.95,1.3a1.38,1.38,0,0,1-1.44-1.3c0-.47.36-.8.69-1.17Z"/><path d="M395.68,286.11c7,.22,13.32,2.61,18.11,8.1.77.88-2.16,3.71-2.87,2.91a20.64,20.64,0,0,0-30.61-.1c-.76.83-3.59-2.15-2.71-3.13C382.31,288.65,388.47,286.37,395.68,286.11Z"/><path d="M272,433.2h-2.25L259.84,416h-.07v15.26H263v2h-8v-2h2.59V414H255v-2h5l9.71,17.13h.07V414h-3.3v-2h7.69v2H272Z"/><path d="M278,425.89a7.65,7.65,0,1,1,7.64,7.73A7.54,7.54,0,0,1,278,425.89Zm13,0c0-3.15-2.14-5.76-5.37-5.76s-5.36,2.61-5.36,5.76a5.38,5.38,0,1,0,10.73,0Z"/><path d="M321.56,414.26l-2.77-.6.07-1.66a27.25,27.25,0,0,0,3.34.43c1.36,0,2.7-.43,4.31-.43,5.09,0,9.37,3.32,9.37,10.74,0,7.77-3.86,10.46-8.56,10.46a41.27,41.27,0,0,0-4.7-.14l-3.62.42-.31-2,2.87-.28Zm2.18,17h3.51c3.78,0,6.35-2.12,6.35-8.05,0-7.07-4.25-9.54-7.34-9.19l-2.52.28Z"/><path d="M352.11,432.14a16.25,16.25,0,0,1-6.38,1.48c-2.56,0-4.91-1.2-4.91-4.06s2.21-3.92,4.63-4.49a31.47,31.47,0,0,1,6.66-.7v-.92c0-2,.32-3.32-2.35-3.32a8.92,8.92,0,0,0-5,1.37v2.09h-2.17V420.2a13.73,13.73,0,0,1,6.84-2.05c3.57,0,4.84,1,4.84,4.41v8.66h2.91v2h-5.09Zm0-5.9a32.07,32.07,0,0,0-6.07.7c-1.43.36-2.94.85-2.94,2.62s1.33,2.08,2.73,2.08a15.14,15.14,0,0,0,6.28-1.73Z"/><path d="M368.52,418.57h8.18v2h-8.18v7.07c0,1.83-.21,4,2.25,4a23.52,23.52,0,0,0,6.14-1.16l.7,1.87a28.82,28.82,0,0,1-7.05,1.27c-2.63,0-4.21-1.55-4.21-5v-8.06H361.3v-2h5.05v-3.92h2.17Z"/><path d="M394.2,432.14a16.3,16.3,0,0,1-6.39,1.48c-2.56,0-4.91-1.2-4.91-4.06s2.21-3.92,4.63-4.49a31.63,31.63,0,0,1,6.67-.7v-.92c0-2,.31-3.32-2.35-3.32a8.89,8.89,0,0,0-5,1.37v2.09h-2.18V420.2a13.76,13.76,0,0,1,6.84-2.05c3.58,0,4.84,1,4.84,4.41v8.66h2.91v2H394.2Zm0-5.9a32,32,0,0,0-6.07.7c-1.44.36-2.95.85-2.95,2.62s1.34,2.08,2.74,2.08a15.22,15.22,0,0,0,6.28-1.73Z"/><path d="M441,412v6.15h-2.18v-.92c0-2.82-.14-3.25-2.91-3.25H430v7.24h4.8v-3H437v8.3h-2.18V423.2H430v8h6.17v2H424.36v-2h3.43V414h-3.43v-2Z"/><path d="M446.34,425.89a7.65,7.65,0,1,1,7.65,7.73A7.55,7.55,0,0,1,446.34,425.89Zm13,0c0-3.15-2.14-5.76-5.37-5.76s-5.36,2.61-5.36,5.76a5.38,5.38,0,1,0,10.73,0Z"/><path d="M479.17,432.31a12.5,12.5,0,0,1-5.08,1.31c-3.37,0-5.33-1.8-5.33-6v-7l-2.56.35-.32-1.8a4.9,4.9,0,0,0,3.09-1c.28-.32.49-.6.94-.6,1,0,1,1,1,1.76v7.56c0,3.64.81,4.77,3.12,4.77a11.84,11.84,0,0,0,5.12-1.48v-9.61l-2.56.35-.31-1.8a4.85,4.85,0,0,0,3.08-1c.29-.32.5-.6.95-.6,1,0,1,1,1,1.76v11.91h2.81v2h-5Z"/><path d="M491.94,431.22h2.38v2h-6.94v-2h2.38V420.55l-2.56.35-.31-1.8a4.85,4.85,0,0,0,3.08-1c.28-.32.49-.6.95-.6,1,0,1,1,1,1.76v.54a13,13,0,0,1,5.58-1.7,4.68,4.68,0,0,1,4.31,2.22,9.64,9.64,0,0,1,.6,4.24v6.61h2.38v2h-6.94v-2h2.38v-6.54c0-2.15.14-4.55-2.73-4.55a11,11,0,0,0-5.58,2Z"/><path d="M520.38,432.63a9.09,9.09,0,0,1-3.86,1A7.37,7.37,0,0,1,509.4,426c0-4,2.91-7.84,7.12-7.84a14.72,14.72,0,0,1,3.86.74V413l-3.16.42-.31-1.8c1.12-.21,2.88-.07,3.68-1,.28-.32.49-.61.95-.61,1,0,1,1,1,1.77v19.43h2.73v2h-4.91Zm0-11.51a6.68,6.68,0,0,0-3.37-1c-3.36,0-5.33,2.68-5.33,5.9,0,2.86,2,5.61,5,5.61a6.35,6.35,0,0,0,3.72-1.27Z"/><path d="M558.33,427.76l-1.23-14.27a2.11,2.11,0,0,1,4.21,0l-1.23,14.27Zm.87,1.83a2.07,2.07,0,0,1,2.07,2,2.07,2.07,0,0,1-4.14,0A2.08,2.08,0,0,1,559.2,429.59Z"/><line class="cls-1" x1="312.06" y1="170.55" x2="323.91" y2="194.35"/><line class="cls-1" x1="293.33" y1="182.66" x2="313.11" y2="199.75"/><line class="cls-1" x1="282.86" y1="201.48" x2="308.66" y2="210.7"/><line class="cls-1" x1="255.59" y1="377.86" x2="311.63" y2="377.86"/><line class="cls-1" x1="487.96" y1="377.86" x2="544" y2="377.86"/><line class="cls-1" x1="496.12" y1="389.08" x2="583.14" y2="389.08"/><line class="cls-1" x1="212.01" y1="389.56" x2="266.59" y2="389.56"/><path d="M483.23,307.1a1,1,0,1,0,1,1A1,1,0,0,0,483.23,307.1Z"/><path d="M510.44,318.71a1,1,0,0,0-.68-.29,1.07,1.07,0,0,0-.69.29l-.69.68-2.23-2.23a17.49,17.49,0,1,0-4.12,4.12l2.23,2.24-.68.68a1,1,0,0,0,0,1.38l12.28,12.28a4.85,4.85,0,0,0,6.86-6.87Zm-4.8,3.43-2.08-2.08c.24-.21.47-.44.7-.66s.45-.47.67-.71l2.08,2.08ZM480.91,318a15.54,15.54,0,1,1,22,0A15.53,15.53,0,0,1,480.91,318Zm28.85,2.75,2.74,2.75-4.12,4.12-2.74-2.75Zm11.59,15.71a2.91,2.91,0,0,1-4.12,0L509.76,329l4.12-4.12,7.47,7.47A2.91,2.91,0,0,1,521.35,336.48Z"/><path d="M501.52,297.42a13.6,13.6,0,1,0,0,19.23A13.59,13.59,0,0,0,501.52,297.42Zm-1.38,17.86a11.66,11.66,0,1,1,0-16.49A11.65,11.65,0,0,1,500.14,315.28Z"/><path d="M491.9,297.32a9.71,9.71,0,0,0-9.19,6.58,1,1,0,1,0,1.84.62,7.79,7.79,0,0,1,7.35-5.26,1,1,0,1,0,0-1.94Z"/><line class="cls-1" x1="276" y1="389.16" x2="404.3" y2="389.16"/><line class="cls-1" x1="474.59" y1="389.08" x2="481.27" y2="389.08"/><circle class="cls-2" cx="535.57" cy="184.86" r="167.14"/><circle class="cls-3" cx="631.68" cy="327.57" r="90"/><circle class="cls-4" cx="567.07" cy="535.22" r="54.64"/><circle class="cls-5" cx="405.71" cy="514" r="25.71"/><circle class="cls-6" cx="267.5" cy="442.64" r="25.07"/><circle class="cls-7" cx="379.71" cy="397.58" r="20.29"/><circle class="cls-8" cx="93.93" cy="89.07" r="66.21"/><circle class="cls-9" cx="50.78" cy="440.93" r="23.07"/><circle class="cls-10" cx="143.43" cy="279.15" r="99"/><circle class="cls-11" cx="226.04" cy="177.47" r="41.46"/><circle class="cls-12" cx="315.39" cy="53.39" r="35.68"/><circle class="cls-13" cx="721.68" cy="67.54" r="60.11"/><circle class="cls-14" cx="749.34" cy="231.49" r="17.06"/></svg>