<svg id="Layer_1" data-name="Layer 1" xmlns="http://www.w3.org/2000/svg" viewBox="0 0 694.6 332.88"><defs><style>.cls-1{fill:#556b6a;}.cls-2{fill:#79fc72;}.cls-3{fill:#566a6b;}.cls-4{fill:#44d8c3;}.cls-5{fill:#23c7b8;}</style></defs><title>logo</title><path class="cls-1" d="M109.24,61.53a72.22,72.22,0,0,1-3-6.92l-2.67,2.67C104.46,56.39,108,59.35,109.24,61.53Z"/><path class="cls-1" d="M115.48,233.12c-32.41,4.63-64.07-14.74-70.13-46.49-6.15-32.2,15.23-63.42,47.27-69.22,4.18-.75,6.86-.07,9.11,4.09,5.81,10.8,12.12,21.33,18.35,31.9,4.07,6.89,7.88,7.92,14.9,4,7.87-4.39,15.62-9,23.43-13.48,5.85-3.36,7.29-7.9,3.86-13.84q-26.69-46.17-53.36-92.34c-3.38-5.87-7.9-7.22-13.82-3.73S83.37,40.76,77.52,44.13C62.18,53,62.13,53.19,71.16,68.8c5,8.56,9.89,17.14,14.89,25.8-45.89,19.21-67.89,49.6-66,90.16,1.72,36.59,26.71,69.15,61.82,79.68C86.39,251.94,94.81,244.13,108,244c13.62-.17,22.17,7.84,26.94,20.61,18.31-6.12,33.05-16.42,44.63-32C157.66,232.56,136.19,230.16,115.48,233.12ZM103.57,57.28l2.67-2.67a72.22,72.22,0,0,0,3,6.92c10.31,18.54,20.84,37,30.89,55.64,1.16,2.16-.2,5.68-.39,8.57-2.78-1.23-6.89-1.68-8.14-3.81-10.71-18.31-21-36.88-31.2-55.46C97.74,61.65,99.41,57.51,103.57,57.28Z"/><path class="cls-1" d="M126.23,270.82a17.84,17.84,0,1,0-35.67.37,17.84,17.84,0,0,0,35.67-.37Z"/><rect class="cls-2" x="106.4" y="205.79" width="87.44" height="13.24" rx="4.46"/><rect class="cls-2" x="128.92" y="155.21" width="48.69" height="12.24" rx="6.12" transform="translate(-60.13 98.24) rotate(-30)"/><rect class="cls-2" x="61.74" y="20.55" width="30.73" height="17.35" rx="3.07" transform="translate(-4.28 42.47) rotate(-30)"/><path class="cls-1" d="M48.1,307H165.7s-3-14.94-34.28-23.93c0,0-20.36,29-45.14-1C86.28,282.05,67.79,280,48.1,307Z"/><path class="cls-3" d="M209.53,149.79q0-12.91,7.09-22A22.34,22.34,0,0,1,235,118.75h16.17q-5.75,10.43-14.91,11.05c-6.11.43-9.16,1.53-9.16,3.33v91.46c0,2.16.83,3.24,2.51,3.24,1.44,0,3.38-.81,5.84-2.43a75.62,75.62,0,0,0,8.18-6.38,53.22,53.22,0,0,1-11.41,14.34q-6.93,6.15-12.49,6.15c-3.6,0-6.2-1.35-7.82-4s-2.42-6.37-2.42-11Z"/><path class="cls-3" d="M267.38,160.8q5.58,0,7.82,4.31a21.9,21.9,0,0,1,2.25,10.25v50.49c.47,3.36,1.73,5,3.77,5,1.44,0,3.11-.78,5-2.33l3.78-3.06q-4.32,7.33-8.72,10.67a16.07,16.07,0,0,1-10,3.35,8.94,8.94,0,0,1-7.55-3.94,15.39,15.39,0,0,1-2.87-9.33V173.37c0-2.27-.84-3.4-2.52-3.4q-3.42,0-10.6,6.11.9-3.42,7.37-9.35T267.38,160.8Zm2.34-39.17a10,10,0,0,1,7.55,3.23q3,3.24,3.05,8.81a11.25,11.25,0,0,1-5.39,9.88q-5.39,3.6-9.7,3.59c-2.52,0-4.4-1.34-5.66-4a22,22,0,0,1-1.89-9.43q0-6.82,3.24-9.44C263.07,122.5,266,121.63,269.72,121.63Z"/><path class="cls-3" d="M358.49,227.29q0,3.94,2.73,4,3.64,0,10-5.93a28.47,28.47,0,0,1-9,10.47q-5.41,3.74-9.67,3.73a10.42,10.42,0,0,1-7.73-3q-2.92-3-2.92-9.05V187.19a19,19,0,0,0-.92-6.54q-.9-2.42-5.1-2.42-4.56,0-12,9.44t-7.47,11.05v30.41q-.9,3.75-6.14,7.07a19.42,19.42,0,0,1-10.39,3.31V178.22c0-1.91-.72-2.86-2.16-2.86q-2.7,0-10.24,4.85a103.14,103.14,0,0,1,12.41-13.57q5.63-4.94,8.84-4.94c3.33,0,5.45,1.83,6.34,5.48s1.34,9.32,1.34,17v6.65a175.72,175.72,0,0,1,14.76-20q7.79-9.06,16.37-9.07,6.63,0,8.77,4.49t2.15,13.48v47.62Z"/><path class="cls-3" d="M394.43,160.8q5.56,0,7.81,4.31a21.9,21.9,0,0,1,2.25,10.25v50.49c.48,3.36,1.73,5,3.77,5q2.16,0,5-2.33l3.78-3.06q-4.32,7.33-8.72,10.67a16.05,16.05,0,0,1-10,3.35,8.94,8.94,0,0,1-7.55-3.94,15.45,15.45,0,0,1-2.87-9.33V173.37c0-2.27-.84-3.4-2.52-3.4q-3.4,0-10.6,6.11.9-3.42,7.37-9.35T394.43,160.8Zm2.33-39.17a10,10,0,0,1,7.55,3.23c2,2.16,3.05,5.1,3.05,8.81a11.25,11.25,0,0,1-5.39,9.88q-5.39,3.6-9.7,3.59c-2.52,0-4.4-1.34-5.66-4a22,22,0,0,1-1.89-9.43q0-6.82,3.24-9.44C390.11,122.5,393.05,121.63,396.76,121.63Z"/><path class="cls-3" d="M465,161.34q7,0,14.74,4.58t7.73,11.23q0,1.8-4.68,6.65a39.84,39.84,0,0,1-8.08,6.83,21.21,21.21,0,0,0-8.27-13.12q-6.64-5-13.66-5-6.65,0-10.87,7.28a33.27,33.27,0,0,0-4.22,17q0,17.25,8,24.35a26.71,26.71,0,0,0,18.24,7.1,21.37,21.37,0,0,0,9.34-2.48,86.05,86.05,0,0,0,10.42-6.15q-7.19,11.06-14.28,15.51t-19.68,4.44q-17.43,0-22.28-9.35t-4.85-23q0-20.65,11.86-33.24T465,161.34Z"/><path class="cls-3" d="M559,161.7v66.49c.12,1.56.9,2.33,2.34,2.33a8.65,8.65,0,0,0,3.86-1.16q2.25-1.17,7.28-4.05a30,30,0,0,1-7.82,9.53q-5.48,4.66-10.51,4.67c-1.92,0-4.4-1.32-7.46-4a13.28,13.28,0,0,1-4.58-10.6v-9.7q-11,11-18.51,17.61t-13.11,6.65q-6.12,0-10.88-7.19t-4.76-19.23q0-24.43,13.48-37.91t35-13.48Zm-46.9,37.74q0,8.81,2.88,12.93a9.1,9.1,0,0,0,7.9,4.14,20,20,0,0,0,9.26-2.61,50,50,0,0,0,10-7.1V166.73q-13.47,0-21.74,10A34.66,34.66,0,0,0,512.12,199.44Z"/><rect class="cls-1" x="140.59" y="301.96" width="501.09" height="5.04" rx="2.52"/><path class="cls-4" d="M561.78,204.5s0,.14,0,.42.07.67.17,1.17a18.28,18.28,0,0,0,1.24,4.22,17.62,17.62,0,0,0,3.81,5.47,29.28,29.28,0,0,0,7.13,5,81.84,81.84,0,0,0,9.75,4.08l5.57,2c1.92.68,3.89,1.38,5.92,2.24a32.56,32.56,0,0,1,3.06,1.46,18.88,18.88,0,0,1,3.1,2.08,9,9,0,0,1,2.65,3.6,7.32,7.32,0,0,1,.46,2.49v.52c0,.11,0,.35,0,.55a9.06,9.06,0,0,1-.19,1.16,9.78,9.78,0,0,1-2,4,14.47,14.47,0,0,1-3,2.69,31.56,31.56,0,0,1-6.5,3.2c-2.17.82-4.33,1.51-6.41,2.24a38,38,0,0,0-5.82,2.39,6.76,6.76,0,0,0-2,1.53,1.85,1.85,0,0,0-.37,1.65c.2,1.41,1.48,2.91,2.94,4.16a48,48,0,0,0,4.86,3.49c1.68,1.09,3.38,2.15,5,3.35a18.8,18.8,0,0,1,2.32,2,7.34,7.34,0,0,1,1.79,2.76,5.33,5.33,0,0,1,.19.9,3.46,3.46,0,0,1,0,.46v.23l0,.17a5,5,0,0,1-.41,1.63,8.4,8.4,0,0,1-1.6,2.44,22.9,22.9,0,0,1-3.83,3.25c-1.29.89-2.53,1.66-3.69,2.39s-2.25,1.38-3.2,2a14.09,14.09,0,0,0-1.29,1,3.43,3.43,0,0,0-.84,1,1,1,0,0,0,0,.2v.34a6.22,6.22,0,0,0,0,.63,9.42,9.42,0,0,0,.18,1.16,11.88,11.88,0,0,0,.55,1.8,9.6,9.6,0,0,0,.49,1.06l.19.35-.41.27s-.09-.12-.24-.36a11.58,11.58,0,0,1-.59-1.07,12.24,12.24,0,0,1-.73-1.86,9.89,9.89,0,0,1-.28-1.24c0-.23-.08-.49-.09-.71s0-.25,0-.37a1.4,1.4,0,0,1,.08-.51,3.92,3.92,0,0,1,1-1.46,13.64,13.64,0,0,1,1.33-1.16c.94-.76,2-1.5,3.1-2.29s2.29-1.64,3.46-2.57a20.83,20.83,0,0,0,3.32-3.19,6.61,6.61,0,0,0,1.1-1.91,3.16,3.16,0,0,0,.18-.94v-.25c0,.06,0,0,0,0a1.49,1.49,0,0,0,0-.21,1.69,1.69,0,0,0-.13-.42,5.08,5.08,0,0,0-1.32-1.74,16.7,16.7,0,0,0-2.09-1.61c-3.08-2.07-6.81-3.77-10.38-6.47a16.2,16.2,0,0,1-2.57-2.43,8.37,8.37,0,0,1-1.84-3.57c0-.19-.07-.35-.1-.57l0-.31v-.21a5.09,5.09,0,0,1,.06-1.22,5.57,5.57,0,0,1,1-2.24,10.31,10.31,0,0,1,3-2.69,43.11,43.11,0,0,1,6.34-3c2.1-.84,4.17-1.64,6.14-2.53a28.62,28.62,0,0,0,5.37-3,10.12,10.12,0,0,0,1.91-1.82,4.84,4.84,0,0,0,.94-1.94,3.85,3.85,0,0,0,.08-.47,1.09,1.09,0,0,0,0-.27v-.31a2.18,2.18,0,0,0-.13-.72,4.51,4.51,0,0,0-1.19-1.59,22,22,0,0,0-4.83-2.92c-3.63-1.74-7.48-3.11-11-4.7a67.47,67.47,0,0,1-9.9-5.09,29,29,0,0,1-7.24-6.29,18.43,18.43,0,0,1-3.42-6.58,17.64,17.64,0,0,1-.6-4.67c0-.54,0-.94,0-1.21s0-.41,0-.41Z"/><path class="cls-3" d="M592.85,198.32l-3.93,100.6L584.49,198.4a8.15,8.15,0,0,0,4.43,1.28C590.54,199.68,591.31,199.09,592.85,198.32Z"/><path class="cls-5" d="M616.55,204.52l0,.42c0,.27,0,.67,0,1.23a16.94,16.94,0,0,1-.65,4.72,18.55,18.55,0,0,1-3.57,6.6,30.1,30.1,0,0,1-7.43,6.24,69.9,69.9,0,0,1-10.06,5c-3.62,1.58-7.53,2.94-11.24,4.66a23.05,23.05,0,0,0-5,2.9,4.37,4.37,0,0,0-1.31,1.6,1.6,1.6,0,0,0-.16.71v.56c0,.07,0,.13,0,.19l0,.25a4.65,4.65,0,0,0,.94,1.94,9.76,9.76,0,0,0,1.94,1.82,29,29,0,0,0,5.47,3c2,.88,4.1,1.66,6.23,2.48a52.66,52.66,0,0,1,6.44,2.81,13,13,0,0,1,3.16,2.33,6,6,0,0,1,1.28,2,5.28,5.28,0,0,1,.33,1.24,4.68,4.68,0,0,1,0,.64v.51a7.76,7.76,0,0,1-1.54,3.94,14.56,14.56,0,0,1-2.53,2.6,42.47,42.47,0,0,1-5.43,3.6c-1.78,1-3.52,2-5.09,3a18.76,18.76,0,0,0-2.17,1.6,6.3,6.3,0,0,0-1.48,1.75c-.61,1-.06,2.55.87,3.76a19.56,19.56,0,0,0,3.31,3.25c1.18,1,2.37,1.81,3.49,2.61s2.19,1.56,3.14,2.31A15.54,15.54,0,0,1,597,288a4.5,4.5,0,0,1,1.05,1.43,2,2,0,0,1,.09.91c0,.23,0,.48-.08.71a10,10,0,0,1-.28,1.27,13.27,13.27,0,0,1-.73,1.88,12.07,12.07,0,0,1-.6,1.09c-.15.24-.24.36-.24.36l-.41-.27L596,295c.12-.24.3-.6.49-1.08a11.75,11.75,0,0,0,.56-1.82,10,10,0,0,0,.17-1.17c0-.2,0-.41,0-.65a.89.89,0,0,0-.08-.51,3.43,3.43,0,0,0-.88-1,14.67,14.67,0,0,0-1.32-1c-1-.67-2.07-1.34-3.24-2.07s-2.44-1.52-3.73-2.43a21,21,0,0,1-3.86-3.35,8.07,8.07,0,0,1-1.53-2.56,5.54,5.54,0,0,1-.21-.8c0-.15,0-.32-.07-.47v-.4a4.61,4.61,0,0,1,.37-1.78,8.24,8.24,0,0,1,1.93-2.64,20.6,20.6,0,0,1,2.37-1.95c1.64-1.19,3.35-2.25,5-3.36a39.79,39.79,0,0,0,4.84-3.57,10.74,10.74,0,0,0,1.84-2.08,5.51,5.51,0,0,0,.55-1.08,3.63,3.63,0,0,0,.15-.54c0-.09,0-.18,0-.26l0-.2v-.32a1.1,1.1,0,0,0,0-.18,1.67,1.67,0,0,0-.11-.34,2.7,2.7,0,0,0-.57-.75,9.28,9.28,0,0,0-2.28-1.49,48.83,48.83,0,0,0-6-2.29c-2.13-.71-4.32-1.39-6.53-2.2a31.7,31.7,0,0,1-6.6-3.19,13.51,13.51,0,0,1-3.05-2.71,9.56,9.56,0,0,1-2-4l-.1-.57-.07-.65,0-.16v-.52a.55.55,0,0,1,0-.17v-.25a6.92,6.92,0,0,1,.58-2.51,9.06,9.06,0,0,1,2.8-3.48,19.39,19.39,0,0,1,3.15-2c1-.55,2.08-1,3.11-1.43,2-.83,4.06-1.53,6-2.2l5.66-1.93a84.05,84.05,0,0,0,9.92-4,30,30,0,0,0,7.3-4.95,17.67,17.67,0,0,0,3.94-5.47,18,18,0,0,0,1.28-4.26c.1-.5.14-.92.17-1.19s0-.42,0-.42Z"/><path class="cls-3" d="M596,118.66c0-1.8,1.52-3.24,7.63-3.66s11.08-4.11,14.91-11.06H602.33A22.32,22.32,0,0,0,583.91,113c-4.73,6-5.59,13.06-5.59,21.68l7.36,90.78,6.37-6.68Z"/><path class="cls-5" d="M411.19,259.5h9.75c5,0,8.42,2.77,8.42,7.61s-3.39,7.8-8.7,7.8h-7.33V286.8h-2.14ZM413.33,273h7.53c4.41,0,6.24-2.34,6.24-5.77,0-3.67-2.42-5.74-6.09-5.74h-7.68Z"/><path class="cls-5" d="M446.68,283.1a21.9,21.9,0,0,0,.27,3.7h-1.87a12.06,12.06,0,0,1-.35-3c-.67,1.44-2.38,3.47-6.4,3.47-4.52,0-6.47-2.92-6.47-5.85,0-4.29,3.31-6.24,9.16-6.24h3.71v-2c0-1.95-.59-4.56-5-4.56-3.94,0-4.53,2.07-5,3.67h-1.95c.24-2.15,1.56-5.46,6.94-5.46,4.45,0,6.95,1.87,6.95,6.16Zm-1.91-6.24h-3.83c-4.32,0-7,1.13-7,4.48,0,2.46,1.76,4.14,4.49,4.14,5.58,0,6.36-3.71,6.36-7.92Z"/><path class="cls-5" d="M450,267.3h3.63v-6.08h1.95v6.08h4.64v1.84h-4.64v12.67c0,2.19.47,3.43,2.34,3.43a7.24,7.24,0,0,0,2-.23v1.72a7,7,0,0,1-2.42.35c-2.5,0-3.9-1.25-3.9-4.37V269.14H450Z"/><path class="cls-5" d="M466,258.06v12.52a6.79,6.79,0,0,1,6.44-3.74c2.76,0,6.59,1.4,6.59,7.56v12.4H477.1v-12c0-3.86-1.76-6-5-6-3.87,0-6.09,2.38-6.09,7.17V286.8h-1.95V258.06Z"/><path class="cls-5" d="M498.59,283.1a21.9,21.9,0,0,0,.27,3.7H497a12.06,12.06,0,0,1-.35-3c-.67,1.44-2.38,3.47-6.4,3.47-4.53,0-6.47-2.92-6.47-5.85,0-4.29,3.31-6.24,9.16-6.24h3.71v-2c0-1.95-.59-4.56-5-4.56-3.93,0-4.52,2.07-5,3.67H484.7c.24-2.15,1.56-5.46,6.94-5.46,4.45,0,6.95,1.87,6.95,6.16Zm-1.92-6.24h-3.82c-4.33,0-7,1.13-7,4.48,0,2.46,1.76,4.14,4.49,4.14,5.57,0,6.35-3.71,6.35-7.92Z"/><path class="cls-5" d="M504.47,267.3c2.89,10.07,4.57,15.84,4.88,17.55h0c.31-1.56,2.26-7.68,5.3-17.55h2.11c3.63,12.06,4.72,15.53,5.07,17.05h0c.54-2.15,1.44-5.07,5-17.05H529l-6.17,19.5H520.7c-2.11-6.9-4.64-15.36-5-17.16h0c-.39,1.91-2.61,8.9-5.15,17.16h-2.34l-5.73-19.5Z"/><path class="cls-5" d="M546.13,283.1a21.9,21.9,0,0,0,.27,3.7h-1.87a12.06,12.06,0,0,1-.35-3c-.67,1.44-2.38,3.47-6.4,3.47-4.52,0-6.47-2.92-6.47-5.85,0-4.29,3.31-6.24,9.16-6.24h3.71v-2c0-1.95-.59-4.56-5-4.56-3.94,0-4.53,2.07-5,3.67h-2c.24-2.15,1.56-5.46,6.94-5.46,4.45,0,7,1.87,7,6.16Zm-1.91-6.24h-3.83c-4.33,0-7,1.13-7,4.48,0,2.46,1.76,4.14,4.49,4.14,5.58,0,6.36-3.71,6.36-7.92Z"/><path class="cls-5" d="M551.86,267.3c3.94,11.16,5.65,15.76,6.32,17.87h0c.78-2.38,2.34-6.91,6.12-17.87h2L559,287.94c-2.07,5.77-3.48,7.06-7,7.06a12.6,12.6,0,0,1-1.79-.12v-1.95A12.46,12.46,0,0,0,552,293c2.81,0,3.71-1.36,5.15-5.38l-7.45-20.36Z"/></svg>