<svg id="Capa_1" enable-background="new 0 0 512.001 512.001" height="512" viewBox="0 0 512.001 512.001" width="512" xmlns="http://www.w3.org/2000/svg"><g><path d="m459.587 425.076 7.255-64.03c2.612-23.051-13.15-44.661-35.885-49.2l-35.792-7.146v-33.65c0-19.68-9.51-37.178-24.171-48.137 21.876-29.268 1.145-71.817-35.992-71.817-24.77 0-44.921 20.165-44.921 44.95 0 10.134 3.372 19.492 9.047 27.019-14.549 10.968-23.975 28.394-23.975 47.985v66.119c-1.339.476-2.663.983-3.972 1.521l-11.079-102.457c-.552-5.104-3.675-9.57-8.278-11.841l-18.545-9.147c-.731-13.199-8.724-24.977-21.195-30.446l-59.042-25.898c-19.241-51.164-18.535-56.56-26.744-66.727 36.72-31.836 13.969-92.174-34.301-92.174-47.32 0-70.498 58.291-35.834 90.794-6.175 7.122-9.783 15.584-10.915 24.795-.159 1.261-45.019 356.37-45.043 356.603-2.254 21.222 14.392 39.808 35.804 39.808 16.226 0 30.518-10.939 34.756-26.602l30.149-111.422 5.699 7.479 5.697 95.716c1.163 19.53 17.399 34.829 36.964 34.829 19.35 0 35.209-14.537 36.89-33.815l10.094-115.832c.296-3.396-.574-6.792-2.465-9.627l-57.575-86.304.067-29.224 52.096 14.362c12.171 3.354 24.892-.028 33.761-8.357l9.02 4.449 11.831 109.407c-17.081 16.392-27.732 39.444-27.732 64.941 0 49.626 40.341 90 89.927 90 27.163 0 51.55-12.116 68.053-31.23h52.914c5.442 18.047 22.203 31.23 41.99 31.23 24.183 0 43.856-19.686 43.856-43.885 0-27.545-25.229-48.441-52.414-43.039zm-367.59-395.075c12.386 0 22.463 10.094 22.463 22.5s-10.077 22.5-22.463 22.5-22.463-10.094-22.463-22.5 10.077-22.5 22.463-22.5zm-50.191 447.563c-1.901 7.027-12.416 5.169-11.78-2.085l21.447-166.384 26.506 34.784zm124.108-112.569-9.637 110.586c-.319 3.66-3.33 6.42-7.003 6.42-3.714 0-6.796-2.904-7.017-6.612-7.113-104.753-4.099-102.031-9.012-108.479l-76.347-100.192 10.623-86.425 16.685 36.934c4.281 9.475 14.09 8.686 22.097 11.707l-.096 41.983c-.019 8.093.538 3.805 59.707 94.078zm30.439-142.357-87.705-24.178-32.772-72.545c-3.582-10.144 3.899-20.865 14.743-20.865 6.608 0 12.578 4.176 14.829 10.321l21.561 59.769c1.396 3.869 4.318 6.995 8.084 8.646l64.94 28.485s0 .001.001.001c6.213 2.725 2.887 12.175-3.681 10.366zm138.648-41.542c8.228 0 14.921 6.707 14.921 14.95s-6.693 14.95-14.921 14.95-14.921-6.707-14.921-14.95 6.693-14.95 14.921-14.95zm-29.813 300.905c-33.044 0-59.927-26.916-59.927-60s26.883-60 59.927-60 59.927 26.916 59.927 60-26.883 60-59.927 60zm-.036-150v-60.951c0-16.569 13.461-30.05 30.006-30.05s30.006 13.48 30.006 30.05v45.95c0 7.152 5.049 13.31 12.063 14.71l47.855 9.555c7.571 1.512 12.82 8.716 11.949 16.402l-10.548 93.103h-36.08c19.589-57.961-23.597-118.769-85.251-118.769zm162.993 150c-7.641 0-13.856-6.229-13.856-13.885s6.216-13.885 13.856-13.885 13.856 6.229 13.856 13.885-6.216 13.885-13.856 13.885z"/><circle cx="305.188" cy="422.001" r="15"/></g></svg>