<svg id="Capa_1" data-name="Capa 1" xmlns="http://www.w3.org/2000/svg" viewBox="0 0 512 418.6"><defs><style>.cls-1{fill:#fff;}</style></defs><title>disease</title><circle class="cls-1" cx="177.5" cy="140.7" r="9.1"/><circle class="cls-1" cx="239.2" cy="140.6" r="9.1"/><path class="cls-1" d="M220.8,219.6H193.5a7.6,7.6,0,0,0,0,15.1h27.3a7.6,7.6,0,0,0,0-15.1Z" transform="translate(0 -46.7)"/><path class="cls-1" d="M497.8,80.9H474.9V61.8h29.5a7.6,7.6,0,1,0,0-15.1H115.7a7.6,7.6,0,1,0,0,15.1H459.8V80.9H436.9a14.3,14.3,0,0,0-14.2,14.2v65.8A44.6,44.6,0,0,0,446,200.1l-5,7.9a41.1,41.1,0,0,0-1.8,39.5l20.6,40.8a25.3,25.3,0,0,1-5.3,29.7L417,352V206.2A21.2,21.2,0,0,0,395.8,185H374a69.1,69.1,0,0,0-2.6-10.9,19.5,19.5,0,0,1-.4-9.6l5.6-25.9a14.9,14.9,0,0,0-4-13.5,14.6,14.6,0,0,0-13.6-4c-7.8,1-27,7.8-35,4.9a71.7,71.7,0,0,0-9.1-2.4,7.6,7.6,0,0,0-8.9,6,7.5,7.5,0,0,0,6,8.8c2.4.5,4.9,1.2,7.3,1.9a33.6,33.6,0,0,0,17.8,1l24.6-5.3-5.5,25.3c-2.8,10.8,3.7,22.5,3.5,35.1v78.2a56.2,56.2,0,0,1-2.8,17.8,55.9,55.9,0,0,0-1.2,5.6,96.4,96.4,0,0,0-63.9-24.2H259.3v-7.5a72.4,72.4,0,0,0,21-38.5c10.9-3.7,20.2-14.8,23.7-25.4,5.2-16-2.2-32.8-16.4-37.5h0a19.8,19.8,0,0,0-5.9-.9V128a39.8,39.8,0,0,0-39.8-39.8H174.8a40,40,0,0,0-39.5,34H115.9c-10.7-1.1-21.5,5.4-33.2,4.3l-25.1-5.4a14.8,14.8,0,0,0-17.5,17.5l5.6,25.9a19.5,19.5,0,0,1-.5,9.6A68.8,68.8,0,0,0,42.7,185H23.5V78.1A16.3,16.3,0,0,1,39.8,61.8H80.9a7.6,7.6,0,1,0,0-15.1H39.8A31.5,31.5,0,0,0,8.4,78.1V189.4A20.9,20.9,0,0,0,0,206.2L.2,452.1a13.2,13.2,0,0,0,13.2,13.2H403.6a13.2,13.2,0,0,0,13.2-13.2V372.4l47.8-43.3c.1,0,.1,0,.1-.1a40.4,40.4,0,0,0,8.5-47.5l-20.5-40.8a25.3,25.3,0,0,1,1.1-24.7l6.8-10.9a49.1,49.1,0,0,0,6.7.5h0a44.7,44.7,0,0,0,38.1-21.5c2.9-4.3,6.7-14.6,6.5-23.2V95.1a14.3,14.3,0,0,0-14.2-14.2Zm-96,125.3V365.7l-8.2,7.5-5.3-4.6a96.4,96.4,0,0,0-14.7-49.5c-1.1-6.5-4.5-14.8-2.2-22.1a73.7,73.7,0,0,0,3.4-22.4V200.2h21a6,6,0,0,1,6,6ZM172.5,277.6a73.1,73.1,0,0,0,71.7,0v13.7a6.2,6.2,0,0,1-6.2,6.2H178.7a6.1,6.1,0,0,1-6.2-6.2Zm110.4-98.3c6.3,2.1,9.3,10.3,6.7,18.4s-10.7,15.9-16.3,16.2a7.5,7.5,0,0,0-7.1,6.7,58.3,58.3,0,0,1-115.7,0,7.6,7.6,0,0,0-7.1-6.7c-5.7-.3-13.8-8.3-16.4-16.2s.4-16.3,6.7-18.4l.8-.2c.5,0,.9.4,1.8,1.6a7.6,7.6,0,0,0,8.5,2.9c3.9-1.2,6-6.7,5.3-11.9a29.1,29.1,0,0,1,29-29.1h58.4a29.2,29.2,0,0,1,29.1,29.1c-.2,4-.5,9.4,5.2,11.9a7.6,7.6,0,0,0,8.5-2.9c1.3-1.8,1.6-1.7,2.6-1.4ZM150.1,128a24.7,24.7,0,0,1,24.7-24.7h67.1A24.8,24.8,0,0,1,266.6,128v10.4a44.2,44.2,0,0,0-29.1-10.9H179.1a43.7,43.7,0,0,0-29,10.9ZM79.6,141.3a33.6,33.6,0,0,0,17.8-1,61.1,61.1,0,0,1,18.5-2.9h19V164a19.8,19.8,0,0,0-5.9.9c-14.2,4.7-21.5,21.5-16.3,37.5,3.4,10.6,12.7,21.7,23.6,25.4a73.1,73.1,0,0,0,21,38.5v7.5H124.9a96.8,96.8,0,0,0-64,24.2,28,28,0,0,0-1.2-5.6,59.2,59.2,0,0,1-2.8-17.8V196.3c-.6-10.8,6.3-22.6,3.5-35L55,136ZM15.1,206.2a6,6,0,0,1,6-6H41.8v74.4A73.8,73.8,0,0,0,45.3,297c2.3,4.6-1.2,17.1-2.3,22.1a96.4,96.4,0,0,0-14.7,49.6c-3,2.5-5.9,5.1-8.8,7.8s-3,3.1-4.4,4.7v-175Zm386.6,244H15.3V421.8A47.8,47.8,0,0,1,30,387.5a150.4,150.4,0,0,1,75.1-39.2,7.5,7.5,0,0,0,6-8.8,7.6,7.6,0,0,0-8.9-6,165.7,165.7,0,0,0-57.6,23.3,81.6,81.6,0,0,1,80.3-67.9h32.4v2.4a21.4,21.4,0,0,0,21.4,21.4H238a21.4,21.4,0,0,0,21.3-21.4v-2.4h32.5A81.5,81.5,0,0,1,372,356.7a165.1,165.1,0,0,0-89.7-26.3H138.9a7.6,7.6,0,0,0,0,15.1H282.3A149.9,149.9,0,0,1,375.9,378l.2.2a142.6,142.6,0,0,1,11,9.6,48,48,0,0,1,14.6,34.3v28.1ZM496.9,96v20.9H437.8V96Zm-2.4,76.4c-2.9,8.6-15.6,18.7-27.1,18a29.6,29.6,0,0,1-29.6-29.5V132h59.1v28.9c-.5,4.1.2,4.7-2.4,11.5Z" transform="translate(0 -46.7)"/></svg>