<svg id="file-medical-coronavirus-healthcare-hospital" xmlns="http://www.w3.org/2000/svg" width="16.681" height="16.96" viewBox="0 0 16.681 16.96">
  <path id="Path_691" data-name="Path 691" d="M13.592,3.139H11.33a.283.283,0,0,0-.283-.283H9.6a1.131,1.131,0,0,0-2.188,0H5.958a.283.283,0,0,0-.283.283H3.414A1.414,1.414,0,0,0,2,4.553V17.558a1.414,1.414,0,0,0,1.414,1.414H13.592a1.414,1.414,0,0,0,1.414-1.414V4.553A1.414,1.414,0,0,0,13.592,3.139Zm-7.351.283H7.655a.283.283,0,0,0,.283-.283.565.565,0,1,1,1.131,0,.283.283,0,0,0,.283.283h1.414V4.836a.283.283,0,0,1-.283.283H6.524a.283.283,0,0,1-.283-.283Zm.283,2.262h3.958a.851.851,0,0,0,.848-.848h1.979V15.014h-1.7a.567.567,0,0,0-.565.565v1.7H3.7V4.836H5.675a.851.851,0,0,0,.848.848Zm6.387,9.9-1.3,1.3v-1.3Zm1.53,1.979a.851.851,0,0,1-.848.848H3.414a.851.851,0,0,1-.848-.848V4.553A.851.851,0,0,1,3.414,3.7H5.675V4.27H3.414a.283.283,0,0,0-.283.283V17.558a.283.283,0,0,0,.283.283H11.33a.292.292,0,0,0,.2-.082L13.793,15.5a.292.292,0,0,0,.082-.2V4.553a.283.283,0,0,0-.283-.283H11.33V3.7h2.262a.851.851,0,0,1,.848.848Z" transform="translate(-2 -2.011)"/>
  <path id="Path_692" data-name="Path 692" d="M14.262,32.7v.283a.283.283,0,0,1-.283.283h-1.7A.283.283,0,0,1,12,32.979v-1.7A.283.283,0,0,1,12.283,31h1.4a.283.283,0,1,1,0,.565H12.565V32.7H13.7a.283.283,0,1,1,.565,0Z" transform="translate(-9.173 -22.804)"/>
  <path id="Path_693" data-name="Path 693" d="M16.062,30.083,14.848,31.3l-.366-.366a.283.283,0,1,0-.4.4l.565.565a.283.283,0,0,0,.4,0l1.414-1.414a.283.283,0,1,0-.4-.4Z" transform="translate(-10.607 -22.087)"/>
  <path id="Path_694" data-name="Path 694" d="M12.565,43.848v-.283h1.116a.283.283,0,1,0,0-.565h-1.4a.283.283,0,0,0-.283.283v1.7a.283.283,0,0,0,.283.283h1.7a.283.283,0,0,0,.283-.283V44.7a.283.283,0,0,0-.565,0H12.565Z" transform="translate(-9.173 -31.411)"/>
  <path id="Path_695" data-name="Path 695" d="M16.062,42.083,14.848,43.3l-.366-.366a.283.283,0,1,0-.4.4l.565.565a.283.283,0,0,0,.4,0l1.414-1.414a.283.283,0,1,0-.4-.4Z" transform="translate(-10.607 -30.694)"/>
  <path id="Path_696" data-name="Path 696" d="M20.7,20.393A1.7,1.7,0,1,0,19,18.7a1.7,1.7,0,0,0,1.7,1.7Zm0-2.827A1.131,1.131,0,1,1,19.565,18.7,1.131,1.131,0,0,1,20.7,17.565Z" transform="translate(-14.194 -12.762)"/>
  <path id="Path_697" data-name="Path 697" d="M22.565,21.7h.565v-.565H23.7v-.565h-.565V20h-.565v.565H22v.565h.565Z" transform="translate(-16.345 -14.914)"/>
  <path id="Path_698" data-name="Path 698" d="M24,32.283a.283.283,0,0,0,.283.283h3.393a.283.283,0,0,0,0-.565H24.283A.283.283,0,0,0,24,32.283Z" transform="translate(-17.78 -23.521)"/>
  <path id="Path_699" data-name="Path 699" d="M27.675,44H24.283a.283.283,0,1,0,0,.565h3.393a.283.283,0,1,0,0-.565Z" transform="translate(-17.78 -32.129)"/>
  <path id="Path_700" data-name="Path 700" d="M25.979,48h-1.7a.283.283,0,1,0,0,.565h1.7a.283.283,0,1,0,0-.565Z" transform="translate(-17.78 -34.998)"/>
  <path id="Path_701" data-name="Path 701" d="M27.675,36H24.283a.283.283,0,1,0,0,.565h3.393a.283.283,0,0,0,0-.565Z" transform="translate(-17.78 -26.391)"/>
  <path id="Path_702" data-name="Path 702" d="M52.262,10H51.7a.851.851,0,0,0-.848.848V11.7a.851.851,0,0,0-.848.848v2.827a.283.283,0,0,0,.565,0V12.545a.283.283,0,0,1,.283-.283v9.9s0,.006,0,.011a.315.315,0,0,0,.014.088l.851,2.262a.285.285,0,0,0,.266.184.281.281,0,0,0,.263-.184l.848-2.262a.319.319,0,0,0,.014-.09s0-.006,0-.008V10.848A.851.851,0,0,0,52.262,10Zm-.283,13.613-.441-1.173h.882Zm.565-1.739H51.414v-.565h1.131Zm0-1.131H51.414v-.565h1.131Zm0-1.131H51.414v-.565h1.131Zm0-1.131H51.414v-6.22h1.131Zm0-6.785H51.414v-.848a.283.283,0,0,1,.283-.283h.565a.283.283,0,0,1,.283.283Z" transform="translate(-36.429 -7.741)"/>
</svg>
