<svg id="height_1_" data-name="height (1)" xmlns="http://www.w3.org/2000/svg" width="7.906" height="13.958" viewBox="0 0 7.906 13.958">
  <g id="Group_168" data-name="Group 168" transform="translate(0)">
    <g id="Group_167" data-name="Group 167">
      <path id="Path_703" data-name="Path 703" d="M118.361,0h-6.816a.545.545,0,1,0,0,1.09h6.816a.545.545,0,0,0,0-1.09Z" transform="translate(-111)"/>
    </g>
  </g>
  <g id="Group_170" data-name="Group 170" transform="translate(0 12.868)">
    <g id="Group_169" data-name="Group 169">
      <path id="Path_704" data-name="Path 704" d="M118.361,472h-6.816a.545.545,0,1,0,0,1.09h6.816a.545.545,0,1,0,0-1.09Z" transform="translate(-111 -472)"/>
    </g>
  </g>
  <g id="Group_172" data-name="Group 172" transform="translate(0.981 1.09)">
    <g id="Group_171" data-name="Group 171">
      <path id="Path_705" data-name="Path 705" d="M152.84,42.179l-1.681-1.695a1.632,1.632,0,0,0-2.32,0l-1.681,1.695a.545.545,0,1,0,.774.768l1.494-1.506v7.093a.545.545,0,1,0,1.09,0V41.385l1.548,1.561a.545.545,0,1,0,.774-.768Z" transform="translate(-147 -40)"/>
    </g>
  </g>
  <g id="Group_174" data-name="Group 174" transform="translate(0.981 9.76)">
    <g id="Group_173" data-name="Group 173">
      <path id="Path_706" data-name="Path 706" d="M152.836,358.158a.545.545,0,0,0-.771,0l-1.681,1.695a.541.541,0,0,1-.771,0l-1.681-1.695a.545.545,0,0,0-.774.768l1.681,1.695a1.632,1.632,0,0,0,2.32,0l1.681-1.695A.545.545,0,0,0,152.836,358.158Z" transform="translate(-147 -358)"/>
    </g>
  </g>
</svg>
