<svg id="name" xmlns="http://www.w3.org/2000/svg" width="17.552" height="14.627" viewBox="0 0 17.552 14.627">
  <path id="Path_707" data-name="Path 707" d="M15.541,55.832H2.011A2.013,2.013,0,0,1,0,53.821V44.679a2.013,2.013,0,0,1,2.011-2.011H6.4a.549.549,0,0,1,0,1.1H2.011a.915.915,0,0,0-.914.914v9.142a.916.916,0,0,0,.914.914h13.53a.916.916,0,0,0,.914-.914V44.679a.915.915,0,0,0-.914-.914H11.153a.549.549,0,1,1,0-1.1h4.388a2.013,2.013,0,0,1,2.011,2.011v9.142A2.013,2.013,0,0,1,15.541,55.832Zm0,0" transform="translate(0 -41.205)"/>
  <path id="Path_708" data-name="Path 708" d="M175.239,4.022h-3.291a1.281,1.281,0,0,1-1.28-1.28V1.28A1.281,1.281,0,0,1,171.948,0h3.291a1.281,1.281,0,0,1,1.28,1.28V2.743A1.281,1.281,0,0,1,175.239,4.022ZM171.948,1.1a.183.183,0,0,0-.183.183V2.743a.183.183,0,0,0,.183.183h3.291a.183.183,0,0,0,.183-.183V1.28a.183.183,0,0,0-.183-.183Zm0,0" transform="translate(-164.817)"/>
  <path id="Path_709" data-name="Path 709" d="M108.5,152.989a1.828,1.828,0,1,1,1.828-1.828A1.831,1.831,0,0,1,108.5,152.989Zm0-2.56a.731.731,0,1,0,.731.731A.733.733,0,0,0,108.5,150.429Zm0,0" transform="translate(-103.011 -144.213)"/>
  <path id="Path_710" data-name="Path 710" d="M70.033,280.257a.549.549,0,0,1-.549-.548v-.366a.916.916,0,0,0-.914-.914h-2.56a.916.916,0,0,0-.914.914v.366a.549.549,0,0,1-1.1,0v-.366a2.013,2.013,0,0,1,2.011-2.011h2.56a2.013,2.013,0,0,1,2.011,2.011v.366A.549.549,0,0,1,70.033,280.257Zm0,0" transform="translate(-61.806 -267.825)"/>
  <path id="Path_711" data-name="Path 711" d="M303.239,161.1h-4.022a.549.549,0,0,1,0-1.1h4.022a.549.549,0,1,1,0,1.1Zm0,0" transform="translate(-288.429 -154.515)"/>
  <path id="Path_712" data-name="Path 712" d="M303.239,246.429h-4.022a.549.549,0,0,1,0-1.1h4.022a.549.549,0,1,1,0,1.1Zm0,0" transform="translate(-288.429 -236.922)"/>
  <path id="Path_713" data-name="Path 713" d="M303.239,331.765h-4.022a.549.549,0,0,1,0-1.1h4.022a.549.549,0,1,1,0,1.1Zm0,0" transform="translate(-288.429 -319.332)"/>
</svg>
