<svg height="480pt" viewBox="-56 0 480 480" width="480pt" xmlns="http://www.w3.org/2000/svg"><path d="m312 48h-64v-8c-.027344-22.082031-17.917969-39.9726562-40-40h-48c-22.082031.0273438-39.972656 17.917969-40 40v8h-64c-30.914062.035156-55.9648438 25.085938-56 56v320c.0351562 30.914062 25.085938 55.964844 56 56h256c30.910156-.039062 55.960938-25.089844 56-56v-320c-.039062-30.910156-25.089844-55.960938-56-56zm-176 40v-48c0-13.253906 10.746094-24 24-24h48c13.253906 0 24 10.746094 24 24v48c0 4.417969 3.582031 8 8 8 22.082031.027344 39.972656 17.917969 40 40v8h-192v-8c.027344-22.082031 17.917969-39.972656 40-40 4.417969 0 8-3.582031 8-8zm152 72c4.417969 0 8-3.582031 8-8v-16h24v296h-272v-296h24v16c0 4.417969 3.582031 8 8 8zm64 264c-.027344 22.082031-17.917969 39.972656-40 40h-256c-22.082031-.027344-39.972656-17.917969-40-40v-320c.027344-22.082031 17.917969-39.972656 40-40h64v16.566406c-21.566406 3.179688-39.34375 18.550782-45.601562 39.433594h-26.398438c-8.835938 0-16 7.164062-16 16v296c0 8.835938 7.164062 16 16 16h272c8.835938 0 16-7.164062 16-16v-296c0-8.835938-7.164062-16-16-16h-26.398438c-6.257812-20.882812-24.035156-36.253906-45.601562-39.433594v-16.566406h64c22.082031.027344 39.972656 17.917969 40 40zm0 0"/><path d="m184 80c13.253906 0 24-10.746094 24-24s-10.746094-24-24-24-24 10.746094-24 24 10.746094 24 24 24zm0-32c4.417969 0 8 3.582031 8 8s-3.582031 8-8 8-8-3.582031-8-8 3.582031-8 8-8zm0 0"/><path d="m64 376c-.0625 16.644531 12.644531 30.558594 29.226562 32 16.582032 1.441406 31.503907-10.070312 34.3125-26.476562 2.8125-16.40625-7.421874-32.226563-23.539062-36.386719v-1.136719c.027344-22.082031 17.917969-39.972656 40-40h80c30.910156-.039062 55.960938-25.089844 56-56v-1.136719c15.601562-4.027343 25.777344-19.03125 23.746094-35.015625s-15.632813-27.96875-31.746094-27.96875-29.714844 11.984375-31.746094 27.96875 8.144532 30.988282 23.746094 35.015625v1.136719c-.027344 22.082031-17.917969 39.972656-40 40h-80c-30.914062.035156-55.964844 25.085938-56 56v1.136719c-14.085938 3.636719-23.945312 16.316406-24 30.863281zm192-160c0-8.835938 7.164062-16 16-16s16 7.164062 16 16-7.164062 16-16 16-16-7.164062-16-16zm-144 160c0 8.835938-7.164062 16-16 16s-16-7.164062-16-16 7.164062-16 16-16 16 7.164062 16 16zm0 0"/><path d="m227.3125 337.375-11.3125 11.3125-11.3125-11.3125-11.3125 11.3125 11.3125 11.3125-11.3125 11.3125 11.3125 11.3125 11.3125-11.3125 11.3125 11.3125 11.3125-11.3125-11.3125-11.3125 11.3125-11.3125zm0 0"/><path d="m116.6875 262.625 11.3125-11.3125 11.3125 11.3125 11.3125-11.3125-11.3125-11.3125 11.3125-11.3125-11.3125-11.3125-11.3125 11.3125-11.3125-11.3125-11.3125 11.3125 11.3125 11.3125-11.3125 11.3125zm0 0"/></svg>