<svg id="time_1_" data-name="time (1)" xmlns="http://www.w3.org/2000/svg" width="11.932" height="11.932" viewBox="0 0 11.932 11.932">
  <g id="Group_176" data-name="Group 176">
    <g id="Group_175" data-name="Group 175">
      <path id="Path_714" data-name="Path 714" d="M5.966,0a5.966,5.966,0,1,0,5.966,5.966A5.966,5.966,0,0,0,5.966,0Zm0,11.079a5.114,5.114,0,1,1,5.114-5.114A5.114,5.114,0,0,1,5.966,11.079Z"/>
    </g>
  </g>
  <g id="Group_178" data-name="Group 178" transform="translate(2.131 2.131)">
    <g id="Group_177" data-name="Group 177">
      <path id="Path_715" data-name="Path 715" d="M89.168,85.333a.426.426,0,0,0-.426.426v2.983H85.759a.426.426,0,1,0,0,.852h3.409a.426.426,0,0,0,.426-.426V85.759A.426.426,0,0,0,89.168,85.333Z" transform="translate(-85.333 -85.333)"/>
    </g>
  </g>
</svg>
